<svg xmlns="http://www.w3.org/2000/svg" width="21.937" height="21.593" viewBox="0 0 21.937 21.593">
  <defs>
    <style>
      .cls-1 {
        fill: #ffcb11;
        fill-rule: evenodd;
      }
    </style>
  </defs>
  <path id="Фигура_3" data-name="Фигура 3" class="cls-1" d="M298.013,782.88a7.486,7.486,0,0,1,1.137-1.376,2.341,2.341,0,0,1,1.292-.56,2.47,2.47,0,0,1,1.525.215,17.346,17.346,0,0,1,1.947,1.142h0a8.048,8.048,0,0,1,1.98,1.561,2.118,2.118,0,0,1,.491,1.737,5.814,5.814,0,0,1-2.2,3.887l0,0,0,0c-1.454,1.008-3.944,1.064-6.633.223a18.967,18.967,0,0,1-8.213-5.415,19.32,19.32,0,0,1-4.4-7.208,11.012,11.012,0,0,1-.473-2.5,8.851,8.851,0,0,1,.024-1.521v-0.019a4.375,4.375,0,0,1,.487-1.642,4.084,4.084,0,0,1,1.323-1.421A5.328,5.328,0,0,1,289.5,768.7a2.505,2.505,0,0,1,.652.082,1.942,1.942,0,0,1,.727.387,6.681,6.681,0,0,1,1.151,1.418,9.753,9.753,0,0,1,1.34,2.351,3.312,3.312,0,0,1,.22,1.467v0.006a2.535,2.535,0,0,1-.448,1.239,3.239,3.239,0,0,1-.7.7c-0.022.019-.045,0.036-0.076,0.061l-0.036.028-0.035.028c-0.044.034-.087,0.069-0.13,0.1l-0.081.07-0.076.1a1.009,1.009,0,0,0-.255.914,6.857,6.857,0,0,0,1.983,2.92,9.533,9.533,0,0,0,3.428,2.387,1.375,1.375,0,0,0,.6.065,0.37,0.37,0,0,0,.169-0.066,0.209,0.209,0,0,0,.073-0.081h0Zm6.259,2.294a6.71,6.71,0,0,0-1.469-1.107,17.49,17.49,0,0,0-1.7-1.008,0.429,0.429,0,0,0-.34-0.055,0.381,0.381,0,0,0-.257.081,6.98,6.98,0,0,0-.818,1.034l-0.02.029-0.023.027c0.041-.05-0.058.075-0.115,0.139a2.289,2.289,0,0,1-.335.31,2.861,2.861,0,0,1-2.611.342,11.323,11.323,0,0,1-4.305-2.9l-0.014-.012-0.013-.014a8.533,8.533,0,0,1-2.548-4,3.039,3.039,0,0,1,.085-1.539,3.459,3.459,0,0,1,.545-1.009c0.047-.063.08-0.106,0.161-0.209l0.05-.065,0.06-.056c0.073-.068.149-0.133,0.231-0.2l0.165-.132,0.141-.112a0.65,0.65,0,0,0,.368-0.513,1.279,1.279,0,0,0-.106-0.565,7.872,7.872,0,0,0-1.071-1.839l-0.009-.013-0.009-.013a6.728,6.728,0,0,0-.752-0.989c-0.025,0-.06,0-0.107,0a2.066,2.066,0,0,0-.738.168,4.507,4.507,0,0,0-1.158.691l-0.036.029-0.037.025a1.922,1.922,0,0,0-.938,1.587,6.847,6.847,0,0,0-.018,1.171,9.009,9.009,0,0,0,.386,2.028,17.307,17.307,0,0,0,3.952,6.414,16.892,16.892,0,0,0,7.291,4.827,9.659,9.659,0,0,0,3.043.488,3.369,3.369,0,0,0,1.773-.432,3.422,3.422,0,0,0,.912-1.11,3.114,3.114,0,0,0,.411-1.218l0-.074,0.013-.073a0.478,0.478,0,0,0,.008-0.055,0.488,0.488,0,0,0-.054-0.077h0Z" transform="translate(-284.438 -768.688)"/>
</svg>
