<?xml version="1.0" encoding="utf-8"?>
<!-- Generator: Adobe Illustrator 21.0.0, SVG Export Plug-In . SVG Version: 6.00 Build 0)  -->
<svg version="1.1" id="Слой_1" xmlns="http://www.w3.org/2000/svg" xmlns:xlink="http://www.w3.org/1999/xlink" x="0px" y="0px"
	 viewBox="0 0 1280 1280" style="enable-background:new 0 0 1280 1280;" xml:space="preserve">
<g transform="translate(0.000000,1280.000000) scale(0.100000,-0.100000)">
	<path d="M1595,12788c-173-43-252-77-350-151c-33-25-292-279-575-564c-368-370-525-534-549-575c-64-110-106-241-118-369
		c-6-61,24-214,59-304c52-133,9-88,2209-2290c1166-1166,2119-2127,2119-2135s-951-967-2114-2130C1114,3107,148,2133,131,2107
		C56,1996-6,1786,3,1675c11-127,53-260,118-373c48-81,1100-1133,1181-1181c109-63,241-105,369-118c106-10,308,48,428,124
		c38,23,751,729,2171,2149c1163,1163,2122,2114,2130,2114s967-951,2130-2114C9950,856,10663,150,10701,127c120-76,322-134,428-124
		c128,13,260,55,369,118c81,48,1133,1100,1181,1181c48,83,77,160,100,268c27,120,26,148-3,273c-28,117-50,173-101,254
		c-26,40-680,702-2151,2173C9361,5433,8410,6392,8410,6400s951,967,2114,2130c1418,1419,2126,2133,2149,2171c76,119,134,321,124,428
		c-12,127-54,258-118,369c-48,81-1100,1133-1181,1181c-113,65-246,107-373,118c-111,9-321-53-432-128c-26-17-1000-983-2163-2145
		C7367,9361,6408,8410,6400,8410s-967,951-2130,2114c-1471,1471-2133,2125-2173,2151c-81,51-137,73-254,101
		C1736,12801,1663,12804,1595,12788z"/>
</g>
</svg>
