<svg id="Layer_1" data-name="Layer 1" xmlns="http://www.w3.org/2000/svg" viewBox="0 0 30 25"><title>hamburger-menu2</title><path d="M49,39.3H73.91a2.52,2.52,0,0,1,2.53,2.5h0a2.52,2.52,0,0,1-2.53,2.5H49a2.52,2.52,0,0,1-2.53-2.5h0A2.52,2.52,0,0,1,49,39.3Zm0,20H73.91a2.52,2.52,0,0,1,2.53,2.5h0a2.52,2.52,0,0,1-2.53,2.5H49a2.52,2.52,0,0,1-2.53-2.5h0A2.52,2.52,0,0,1,49,59.3Zm0-10H73.91a2.52,2.52,0,0,1,2.53,2.5h0a2.52,2.52,0,0,1-2.53,2.5H49a2.52,2.52,0,0,1-2.53-2.5h0A2.52,2.52,0,0,1,49,49.3Z" transform="translate(-46.44 -39.3)"/></svg>