<?xml version="1.0" encoding="UTF-8"?>
<!DOCTYPE svg PUBLIC "-//W3C//DTD SVG 1.1//EN" "http://www.w3.org/Graphics/SVG/1.1/DTD/svg11.dtd">
<!-- Creator: CorelDRAW X8 -->
<svg xmlns="http://www.w3.org/2000/svg" xml:space="preserve" width="262px" height="49px" version="1.1" style="shape-rendering:geometricPrecision; text-rendering:geometricPrecision; image-rendering:optimizeQuality; fill-rule:evenodd; clip-rule:evenodd"
viewBox="0 0 26200 4900"
 xmlns:xlink="http://www.w3.org/1999/xlink">
 <defs>
  <style type="text/css">
   <![CDATA[
    .fil1 {fill:#FFCB11}
    .fil0 {fill:black;fill-rule:nonzero}
   ]]>
  </style>
 </defs>
 <g id="Слой_x0020_1">
  <metadata id="CorelCorpID_0Corel-Layer"/>
  <path class="fil0" d="M1979 2534l-493 0 -98 -310 -732 0 -98 310 -493 0 670 -1970 574 0 670 1970zm-957 -1455l-231 723 462 0 -231 -723zm2347 433c161,105 242,253 242,445 0,170 -61,309 -183,416 -122,107 -273,161 -453,161l-827 0 0 -1970 771 0c174,0 321,52 441,157 121,104 181,239 181,406 0,159 -58,288 -172,385zm-450 -526l-321 0 0 349 321 0c50,0 92,-17 123,-49 32,-33 48,-75 48,-126 0,-50 -16,-92 -48,-125 -31,-33 -73,-49 -123,-49zm-321 1125l377 0c56,0 101,-17 135,-52 34,-34 51,-80 51,-136 0,-56 -17,-102 -51,-137 -34,-34 -79,-52 -135,-52l-377 0 0 377zm1041 -1547l1463 0 0 433 -506 0 0 1537 -450 0 0 -1537 -507 0 0 -433zm3214 1714c-199,196 -441,295 -726,295 -285,0 -528,-99 -726,-295 -199,-197 -299,-440 -299,-729 0,-289 100,-532 299,-729 198,-197 441,-296 726,-296 285,0 527,99 726,296 199,197 298,440 298,729 0,289 -99,532 -298,729zm-1300 -729c0,172 54,313 163,422 109,109 246,163 411,163 163,0 299,-54 408,-163 110,-111 166,-252 166,-422 0,-171 -56,-312 -166,-422 -109,-109 -245,-164 -408,-164 -165,0 -302,55 -411,164 -109,108 -163,249 -163,422z"/>
  <path class="fil0" d="M10044 2531l-150 0 0 -1694 -1165 1694 -129 0 0 -1970 149 0 0 1694 1162 -1694 133 0 0 1970zm1784 -1084l0 -886 149 0 0 1970 -149 0 0 -943 -1146 0 0 943 -149 0 0 -1970 149 0 0 886 1146 0zm1550 1115c-294,0 -539,-98 -734,-293 -193,-195 -290,-436 -290,-723 0,-287 97,-527 290,-721 195,-197 440,-295 734,-295 182,0 347,43 496,129 151,87 268,201 348,344l-132 76c-64,-120 -160,-218 -290,-293 -125,-75 -266,-113 -422,-113 -253,0 -463,85 -630,254 -163,167 -245,373 -245,619 0,246 82,453 245,622 167,167 377,250 630,250 152,0 293,-37 424,-112 130,-75 228,-176 294,-301l132 75c-81,147 -197,264 -350,351 -153,87 -320,131 -500,131zm994 -2001l1390 0 0 141 -619 0 0 1829 -152 0 0 -1829 -619 0 0 -141zm1699 0l670 0c176,0 323,58 439,174 116,117 174,262 174,437 0,174 -58,319 -174,436 -114,114 -261,171 -439,171l-521 0 0 752 -149 0 0 -1970zm149 1078l521 0c133,0 244,-44 332,-133 88,-88 132,-199 132,-334 0,-137 -44,-250 -132,-338 -88,-88 -199,-132 -332,-132l-521 0 0 937zm2029 197l546 -1275 155 0 -656 1539c-131,306 -331,450 -599,431l0 -138c201,22 351,-81 450,-310l34 -78 -692 -1444 155 0 607 1275zm1295 -318l1024 1013 -200 0 -987 -971 0 971 -150 0 0 -1970 150 0 0 917 959 -917 200 0 -996 957zm1117 -957l1390 0 0 141 -619 0 0 1829 -152 0 0 -1829 -619 0 0 -141zm3211 1705c-197,197 -437,296 -721,296 -283,0 -523,-99 -720,-296 -197,-199 -295,-439 -295,-720 0,-282 98,-521 295,-718 197,-199 437,-298 720,-298 284,0 524,99 721,298 197,197 295,436 295,718 0,281 -98,521 -295,720zm-1337 -101c169,169 374,253 616,253 244,0 449,-84 614,-253 169,-173 253,-379 253,-619 0,-242 -84,-448 -253,-616 -165,-171 -370,-257 -614,-257 -242,0 -447,86 -616,257 -167,170 -250,376 -250,616 0,240 83,446 250,619zm2009 -1604l670 0c176,0 323,58 439,174 116,117 175,262 175,437 0,174 -59,319 -175,436 -114,114 -261,171 -439,171l-520 0 0 752 -150 0 0 -1970zm150 1078l520 0c133,0 244,-44 332,-133 88,-88 132,-199 132,-334 0,-137 -44,-250 -132,-338 -88,-88 -199,-132 -332,-132l-520 0 0 937z"/>
  <polygon class="fil0" points="937,4523 801,4523 801,3761 276,4523 166,4523 166,3501 302,3501 302,4264 827,3501 937,3501 "/>
  <polygon id="1" class="fil0" points="1647,4097 1647,3793 1774,3793 1774,4523 1647,4523 1647,4218 1269,4218 1269,4523 1142,4523 1142,3793 1269,3793 1269,4097 "/>
  <path id="2" class="fil0" d="M2594 3793l0 609 101 0 0 316 -126 0 0 -195 -547 0 0 195 -125 0 0 -316 89 0c46,-65 70,-155 70,-270l0 -339 538 0zm-464 609l339 0 0 -491 -288 0 0 221c0,107 -17,197 -51,270z"/>
  <polygon id="3" class="fil0" points="2957,4305 3362,3793 3464,3793 3464,4523 3338,4523 3338,4011 2934,4523 2832,4523 2832,3793 2957,3793 "/>
  <path id="4" class="fil0" d="M4142 4148c75,31 112,87 112,169 0,62 -20,112 -61,150 -41,37 -98,56 -172,56l-365 0 0 -730 336 0c72,0 128,18 168,54 41,36 61,84 61,145 0,70 -26,122 -79,156zm-156 -241l-206 0 0 191 206 0c74,0 111,-32 111,-98 0,-62 -37,-93 -111,-93zm-206 500l234 0c37,0 65,-8 85,-26 20,-17 30,-42 30,-74 0,-30 -10,-54 -30,-71 -20,-17 -48,-26 -85,-26l-234 0 0 197z"/>
  <polygon id="5" class="fil0" points="4517,4305 4921,3793 5023,3793 5023,4523 4898,4523 4898,4011 4494,4523 4392,4523 4392,3793 4517,3793 "/>
  <path id="6" class="fil0" d="M5843 3793l0 609 101 0 0 316 -126 0 0 -195 -547 0 0 195 -125 0 0 -316 89 0c46,-65 70,-155 70,-270l0 -339 538 0zm-464 609l339 0 0 -491 -288 0 0 221c0,107 -17,197 -51,270z"/>
  <path id="7" class="fil0" d="M6351 4365l210 -572 136 0 -298 775c-31,83 -75,146 -131,189 -57,43 -121,62 -193,57l0 -118c89,7 154,-42 197,-146l12 -26 -317 -731 134 0 250 572z"/>
  <path id="8" class="fil0" d="M7378 3919l0 -126 127 0 0 730 -127 0 0 -126c-62,97 -154,145 -276,145 -103,0 -190,-37 -261,-111 -72,-75 -108,-166 -108,-273 0,-106 36,-197 108,-271 72,-75 159,-113 261,-113 122,0 214,48 276,145zm-260 500c74,0 136,-25 186,-74 49,-52 74,-114 74,-187 0,-74 -25,-136 -74,-185 -50,-51 -112,-76 -186,-76 -73,0 -134,25 -184,76 -49,49 -74,111 -74,185 0,73 25,135 74,187 50,49 111,74 184,74z"/>
  <path id="9" class="fil0" d="M7765 3793l541 0 0 730 -127 0 0 -607 -288 0 0 297c0,117 -23,200 -70,249 -46,49 -115,69 -205,61l0 -120c50,7 88,-5 112,-34 24,-30 37,-83 37,-159l0 -417z"/>
  <path id="10" class="fil0" d="M8625 4056l181 0c73,0 133,22 181,65 49,43 73,99 73,168 0,69 -24,126 -73,169 -48,43 -109,65 -181,65l-308 0 0 -730 127 0 0 263zm0 349l181 0c37,0 68,-11 92,-33 24,-21 37,-49 37,-83 0,-34 -13,-62 -38,-84 -24,-22 -55,-32 -91,-32l-181 0 0 232z"/>
  <polygon id="11" class="fil0" points="9702,4097 9702,3793 9829,3793 9829,4523 9702,4523 9702,4218 9324,4218 9324,4523 9197,4523 9197,3793 9324,3793 9324,4097 "/>
  <path id="12" class="fil0" d="M10637 4431c-74,74 -165,111 -273,111 -108,0 -199,-37 -272,-111 -74,-74 -111,-165 -111,-273 0,-108 37,-199 111,-273 73,-74 164,-111 272,-111 108,0 199,37 273,111 75,75 113,166 113,273 0,107 -38,198 -113,273zm-273 -13c73,0 135,-25 184,-75 50,-49 75,-111 75,-185 0,-74 -25,-136 -75,-185 -49,-50 -111,-75 -184,-75 -72,0 -132,25 -182,75 -50,49 -74,111 -74,185 0,74 24,136 74,185 50,50 110,75 182,75z"/>
  <path id="13" class="fil0" d="M11600 4216l-611 0c12,64 42,115 89,151 47,37 105,55 175,55 96,0 166,-35 210,-106l108 61c-72,110 -179,165 -321,165 -115,0 -209,-36 -283,-108 -72,-74 -108,-166 -108,-276 0,-111 35,-202 106,-274 71,-73 163,-110 276,-110 107,0 194,38 261,114 68,74 102,164 102,271 0,19 -1,38 -4,57zm-359 -322c-67,0 -123,19 -168,57 -46,38 -73,89 -84,154l487 0c-11,-67 -37,-119 -80,-156 -43,-37 -94,-55 -155,-55z"/>
  <path id="14" class="fil0" d="M12731 4431c-74,74 -165,111 -273,111 -108,0 -199,-37 -273,-111 -74,-74 -111,-165 -111,-273 0,-108 37,-199 111,-273 74,-74 165,-111 273,-111 108,0 199,37 273,111 75,75 112,166 112,273 0,107 -37,198 -112,273zm-273 -13c73,0 134,-25 184,-75 49,-49 74,-111 74,-185 0,-74 -25,-136 -74,-185 -50,-50 -111,-75 -184,-75 -72,0 -133,25 -182,75 -50,49 -75,111 -75,185 0,74 25,136 75,185 49,50 110,75 182,75z"/>
  <path id="15" class="fil0" d="M13325 4542c-108,0 -197,-36 -267,-107 -70,-72 -105,-163 -105,-274 0,-126 18,-221 54,-288 37,-67 111,-127 224,-182 6,-3 13,-6 21,-10 9,-4 19,-9 31,-14 12,-5 23,-10 31,-14l79 -35c78,-39 119,-85 124,-140l102 58c-7,34 -18,62 -33,82 -1,2 -4,6 -9,13 -5,6 -8,10 -10,13 -2,2 -5,5 -10,10 -4,4 -8,8 -13,12 -4,4 -10,8 -17,12 -36,22 -61,37 -77,44 -6,3 -12,6 -18,8 -6,3 -12,6 -15,8 -4,2 -7,3 -9,4l-48 21 -47 19c-65,28 -113,56 -145,86 -31,29 -53,66 -67,110 31,-36 69,-65 115,-84 46,-20 94,-29 142,-29 93,0 170,31 232,93 64,63 96,144 96,241 0,99 -34,181 -102,246 -69,65 -155,97 -259,97zm234 -343c0,-65 -21,-119 -63,-160 -42,-41 -98,-62 -167,-62 -61,0 -118,20 -169,60 -50,40 -75,91 -75,155 0,66 23,120 69,163 46,43 103,64 171,64 69,0 125,-21 167,-63 45,-41 67,-94 67,-157z"/>
  <path id="16" class="fil0" d="M14091 4365l210 -572 135 0 -297 775c-31,83 -75,146 -132,189 -56,43 -120,62 -192,57l0 -118c88,7 154,-42 197,-146l11 -26 -316 -731 134 0 250 572z"/>
  <path id="17" class="fil0" d="M15002 4142l0 -349 127 0 0 730 -127 0 0 -263c-59,25 -125,38 -197,38 -94,0 -166,-22 -217,-67 -51,-45 -76,-110 -76,-196l0 -242 127 0 0 235c0,54 14,92 43,116 29,24 73,36 132,36 67,0 130,-13 188,-38z"/>
  <path id="18" class="fil0" d="M16022 4216l-611 0c13,64 42,115 89,151 47,37 105,55 175,55 96,0 166,-35 210,-106l108 61c-72,110 -179,165 -321,165 -115,0 -209,-36 -283,-108 -72,-74 -108,-166 -108,-276 0,-111 36,-202 107,-274 71,-73 162,-110 275,-110 107,0 194,38 261,114 69,74 103,164 103,271 0,19 -2,38 -5,57zm-359 -322c-67,0 -123,19 -168,57 -45,38 -73,89 -84,154l487 0c-11,-67 -37,-119 -80,-156 -43,-37 -94,-55 -155,-55z"/>
  <polygon id="19" class="fil0" points="16677,4097 16677,3793 16804,3793 16804,4523 16677,4523 16677,4218 16299,4218 16299,4523 16172,4523 16172,3793 16299,3793 16299,4097 "/>
  <polygon id="20" class="fil0" points="17122,4305 17526,3793 17628,3793 17628,4523 17503,4523 17503,4011 17099,4523 16997,4523 16997,3793 17122,3793 "/>
  <path id="21" class="fil0" d="M18521 4216l-611 0c13,64 42,115 89,151 47,37 105,55 175,55 96,0 166,-35 210,-106l108 61c-72,110 -179,165 -321,165 -115,0 -209,-36 -283,-108 -72,-74 -108,-166 -108,-276 0,-111 36,-202 107,-274 71,-73 163,-110 275,-110 107,0 194,38 262,114 68,74 102,164 102,271 0,19 -2,38 -5,57zm-359 -322c-67,0 -123,19 -168,57 -45,38 -73,89 -84,154l487 0c-10,-67 -37,-119 -80,-156 -43,-37 -94,-55 -155,-55z"/>
  <path id="22" class="fil0" d="M19522 4148c75,31 112,87 112,169 0,62 -20,112 -61,150 -41,37 -98,56 -172,56l-365 0 0 -730 336 0c72,0 128,18 168,54 41,36 61,84 61,145 0,70 -26,122 -79,156zm-156 -241l-206 0 0 191 206 0c74,0 111,-32 111,-98 0,-62 -37,-93 -111,-93zm-206 500l234 0c37,0 65,-8 85,-26 20,-17 30,-42 30,-74 0,-30 -10,-54 -30,-71 -20,-17 -48,-26 -85,-26l-234 0 0 197z"/>
  <path id="23" class="fil0" d="M20387 4431c-74,74 -165,111 -273,111 -107,0 -198,-37 -272,-111 -74,-74 -111,-165 -111,-273 0,-108 37,-199 111,-273 74,-74 165,-111 272,-111 108,0 199,37 273,111 75,75 113,166 113,273 0,107 -38,198 -113,273zm-273 -13c73,0 135,-25 184,-75 50,-49 75,-111 75,-185 0,-74 -25,-136 -75,-185 -49,-50 -111,-75 -184,-75 -71,0 -132,25 -182,75 -50,49 -74,111 -74,185 0,74 24,136 74,185 50,50 111,75 182,75z"/>
  <polygon id="24" class="fil0" points="21182,4146 21489,4523 21340,4523 21067,4177 21067,4523 20942,4523 20942,4177 20669,4523 20522,4523 20826,4146 20536,3793 20683,3793 20942,4116 20942,3793 21067,3793 21067,4116 21325,3793 21474,3793 "/>
  <path id="25" class="fil0" d="M22237 3793l0 609 101 0 0 316 -126 0 0 -195 -547 0 0 195 -125 0 0 -316 89 0c47,-65 70,-155 70,-270l0 -339 538 0zm-464 609l339 0 0 -491 -288 0 0 221c0,107 -17,197 -51,270z"/>
  <path id="26" class="fil0" d="M23146 4216l-611 0c12,64 42,115 89,151 47,37 105,55 175,55 96,0 166,-35 210,-106l108 61c-72,110 -179,165 -321,165 -115,0 -209,-36 -283,-108 -72,-74 -108,-166 -108,-276 0,-111 36,-202 107,-274 71,-73 162,-110 275,-110 107,0 194,38 261,114 68,74 103,164 103,271 0,19 -2,38 -5,57zm-359 -322c-67,0 -123,19 -168,57 -45,38 -73,89 -84,154l487 0c-11,-67 -37,-119 -80,-156 -43,-37 -94,-55 -155,-55z"/>
  <polygon id="27" class="fil0" points="23801,4097 23801,3793 23928,3793 23928,4523 23801,4523 23801,4218 23423,4218 23423,4523 23296,4523 23296,3793 23423,3793 23423,4097 "/>
  <polygon id="28" class="fil0" points="24246,4305 24650,3793 24752,3793 24752,4523 24627,4523 24627,4011 24223,4523 24121,4523 24121,3793 24246,3793 "/>
  <path id="29" class="fil0" d="M25583 3774c107,0 197,37 271,111 75,75 112,166 112,273 0,107 -37,198 -112,273 -74,74 -164,111 -271,111 -97,0 -180,-31 -250,-92 -71,-62 -113,-139 -125,-232l-136 0 0 305 -127 0 0 -730 127 0 0 304 136 0c13,-94 55,-171 125,-231 72,-61 155,-92 250,-92zm0 644c72,0 132,-25 182,-75 50,-49 74,-111 74,-185 0,-74 -24,-136 -74,-185 -50,-50 -110,-75 -182,-75 -73,0 -135,25 -184,75 -50,49 -75,111 -75,185 0,74 25,136 75,185 49,50 111,75 184,75z"/>
  <rect class="fil1" x="7650" y="81" width="300" height="2950"/>
 </g>
</svg>
