<?xml version="1.0" encoding="UTF-8"?>
<!DOCTYPE svg PUBLIC "-//W3C//DTD SVG 1.1//EN" "http://www.w3.org/Graphics/SVG/1.1/DTD/svg11.dtd">
<!-- Creator: CorelDRAW X8 -->
<svg xmlns="http://www.w3.org/2000/svg" xml:space="preserve" width="250px" height="54px" version="1.1" style="shape-rendering:geometricPrecision; text-rendering:geometricPrecision; image-rendering:optimizeQuality; fill-rule:evenodd; clip-rule:evenodd"
viewBox="0 0 25000 5400"
 xmlns:xlink="http://www.w3.org/1999/xlink">
 <defs>
  <style type="text/css">
   <![CDATA[
    .fil0 {fill:black}
    .fil1 {fill:#FCBE0B}
    .fil3 {fill:#FFBE03}
    .fil2 {fill:black;fill-rule:nonzero}
   ]]>
  </style>
 </defs>
 <g id="Слой_x0020_1">
  <metadata id="CorelCorpID_0Corel-Layer"/>
  <g id="_1103842288">
   <path class="fil0" d="M1331 2143l940 0c69,0 125,-56 125,-125 0,-328 -267,-595 -595,-595 -328,0 -595,267 -595,595 0,69 56,125 125,125zm470 -471c147,0 273,92 323,222l-645 0c50,-130 175,-222 322,-222l0 0zm0 0z"/>
   <circle class="fil1" cx="1801" cy="1783" r="1755"/>
   <g>
    <g>
     <path class="fil0" d="M883 2004l11 0c37,146 169,253 326,253 156,0 288,-107 325,-253l512 0c37,146 169,253 326,253 156,0 288,-107 326,-253l279 0c46,0 84,-37 84,-83l0 -148c0,-305 -228,-557 -522,-596 -39,-379 -360,-675 -749,-675 -389,0 -710,296 -749,675 -294,39 -522,291 -522,596l0 148c0,46 38,83 84,83l101 0 168 0zm506 -83c0,93 -76,169 -169,169 -94,0 -169,-76 -169,-169 0,-93 75,-169 169,-169 93,0 169,75 169,169zm1163 0c0,93 -76,169 -169,169 -94,0 -169,-76 -169,-169 0,-93 75,-169 169,-169 93,0 169,75 169,169zm-1854 -148c0,-239 194,-434 433,-434 47,0 84,-37 84,-84 0,-323 263,-586 586,-586 323,0 586,263 586,586 0,47 37,84 84,84 239,0 433,195 433,434l0 64 -195 0c-38,-145 -170,-253 -326,-253 -157,0 -289,108 -326,253l-512 0c-37,-145 -169,-253 -325,-253 -157,0 -289,108 -326,253l-196 0 0 -64z"/>
    </g>
    <path class="fil0" d="M1801 3064c-395,0 -759,-199 -972,-533 -25,-38 -14,-90 24,-114 39,-25 90,-14 115,25 183,286 495,457 833,457 339,0 650,-171 834,-457 24,-39 75,-50 114,-25 38,24 49,75 25,114 -214,334 -578,533 -973,533zm0 0z"/>
   </g>
   <polygon class="fil2" points="4239,3014 4790,3014 4790,2046 5984,2046 5984,1545 4790,1545 4790,1013 6145,1013 6145,512 4239,512 "/>
   <path id="1" class="fil2" d="M7725 3054c672,0 1097,-372 1097,-1130l0 -1412 -550 0 0 1434c0,396 -204,600 -540,600 -336,0 -540,-211 -540,-618l0 -1416 -551 0 0 1430c0,736 412,1112 1084,1112z"/>
   <polygon id="2" class="fil2" points="9480,3014 10023,3014 10023,1424 11235,3014 11703,3014 11703,512 11160,512 11160,2053 9987,512 9480,512 "/>
   <path id="3" class="fil2" d="M13447 3014l833 0c787,0 1330,-546 1330,-1251 0,-711 -543,-1251 -1330,-1251l-833 0 0 2502zm186 -171l0 -2159 647 0c697,0 1137,486 1137,1079 0,604 -440,1080 -1137,1080l-647 0z"/>
   <path id="4" class="fil2" d="M16339 3014l186 0 0 -1036 819 0 797 1036 236 0 -826 -1068c422,-58 733,-297 733,-715 0,-186 -72,-354 -190,-472 -150,-150 -396,-247 -704,-247l-1051 0 0 2502zm186 -1204l0 -1126 854 0c454,0 719,211 719,547 0,368 -311,579 -729,579l-844 0z"/>
   <polygon id="5" class="fil2" points="19045,3014 19231,3014 19231,512 19045,512 "/>
   <polygon id="6" class="fil2" points="20982,3032 21147,3032 22248,512 22051,512 21068,2814 20089,512 19882,512 "/>
   <polygon id="7" class="fil2" points="22873,3014 24671,3014 24671,2843 23059,2843 23059,1838 24493,1838 24493,1667 23059,1667 23059,684 24653,684 24653,512 22873,512 "/>
   <polygon class="fil2" points="215,4024 337,4024 337,4849 878,4024 1011,4024 1011,5066 889,5066 889,4243 349,5066 215,5066 "/>
   <polygon id="1" class="fil2" points="1217,4311 1342,4311 1342,4625 1688,4625 1688,4311 1813,4311 1813,5066 1688,5066 1688,4731 1342,4731 1342,5066 1217,5066 "/>
   <path id="2" class="fil2" d="M2099 4311l514 0 0 650 79 0 0 319 -102 0 0 -214 -581 0 0 214 -102 0 0 -319 65 0c88,-122 131,-339 127,-650zm103 106c-9,245 -46,427 -110,544l396 0 0 -544 -286 0z"/>
   <polygon id="3" class="fil2" points="2829,4311 2954,4311 2954,4887 3301,4311 3436,4311 3436,5066 3311,5066 3311,4494 2964,5066 2829,5066 "/>
   <path id="4" class="fil2" d="M3623 4311l287 0c71,0 123,6 158,18 34,12 64,34 88,66 25,33 37,72 37,117 0,36 -7,67 -21,94 -15,27 -37,49 -66,67 34,12 63,34 86,67 23,32 34,71 34,115 -4,72 -30,125 -75,159 -45,35 -111,52 -197,52l-331 0 0 -755zm125 318l132 0c53,0 89,-2 109,-8 20,-6 38,-17 53,-35 16,-17 23,-38 23,-62 0,-40 -13,-68 -40,-83 -28,-16 -75,-24 -141,-24l-136 0 0 212zm0 332l163 0c71,0 120,-8 146,-25 26,-17 40,-46 41,-87 0,-24 -7,-47 -22,-68 -16,-20 -36,-33 -60,-39 -25,-5 -64,-8 -118,-8l-150 0 0 227z"/>
   <polygon id="5" class="fil2" points="4377,4311 4502,4311 4502,4887 4849,4311 4983,4311 4983,5066 4858,5066 4858,4494 4512,5066 4377,5066 "/>
   <path id="6" class="fil2" d="M5268 4311l514 0 0 650 80 0 0 319 -102 0 0 -214 -581 0 0 214 -102 0 0 -319 65 0c88,-122 130,-339 126,-650zm104 106c-9,245 -46,427 -111,544l396 0 0 -544 -285 0z"/>
   <path id="7" class="fil2" d="M5993 5356l-14 -118c27,7 51,11 71,11 28,0 51,-5 67,-14 17,-10 31,-23 41,-40 8,-13 21,-45 38,-95 3,-7 6,-18 11,-32l-279 -757 133 0 154 436c20,55 38,113 54,174 14,-57 31,-114 51,-170l157 -440 125 0 -279 768c-30,83 -53,139 -70,171 -22,42 -48,72 -76,92 -29,20 -63,29 -103,29 -24,0 -51,-5 -81,-15z"/>
   <path id="8" class="fil2" d="M7174 4971c-46,41 -91,69 -134,86 -43,17 -89,25 -138,25 -81,0 -143,-20 -186,-61 -44,-40 -66,-92 -66,-154 0,-37 8,-71 25,-101 16,-31 38,-55 64,-74 27,-18 57,-32 90,-42 25,-6 62,-13 112,-19 100,-12 175,-27 223,-44 0,-17 0,-28 0,-33 0,-52 -12,-88 -35,-110 -32,-29 -80,-43 -143,-43 -59,0 -102,11 -130,32 -28,21 -49,58 -62,112l-123 -17c12,-54 30,-97 55,-130 26,-33 63,-58 111,-76 48,-18 104,-27 168,-27 63,0 114,7 154,23 39,15 68,34 86,57 19,23 32,52 39,87 4,22 7,61 7,118l0 169c0,119 2,194 7,226 5,31 16,62 31,91l-131 0c-12,-27 -20,-59 -24,-95zm-10 -283c-45,19 -114,35 -204,48 -52,7 -88,16 -110,25 -21,10 -37,23 -49,41 -12,19 -17,39 -17,61 0,34 12,62 38,85 25,22 62,34 110,34 48,0 91,-11 129,-33 37,-21 65,-50 82,-87 14,-29 21,-72 21,-128l0 -46z"/>
   <path id="9" class="fil2" d="M7543 4311l581 0 0 754 -125 0 0 -648 -331 0 0 376c0,87 -2,145 -8,173 -5,28 -21,52 -45,73 -25,21 -61,31 -109,31 -29,0 -62,-2 -100,-5l0 -107 54 0c26,0 45,-2 56,-8 11,-5 18,-14 22,-26 4,-12 5,-50 5,-116l0 -497z"/>
   <path id="10" class="fil2" d="M8308 4311l125 0 0 295 158 0c103,0 183,21 238,61 56,41 84,98 84,170 0,63 -23,117 -70,162 -46,45 -121,67 -223,67l-312 0 0 -755zm125 650l132 0c79,0 135,-10 169,-30 34,-20 51,-51 51,-93 0,-33 -12,-62 -37,-87 -26,-26 -81,-39 -167,-39l-148 0 0 249z"/>
   <polygon id="11" class="fil2" points="9051,4311 9176,4311 9176,4625 9522,4625 9522,4311 9647,4311 9647,5066 9522,5066 9522,4731 9176,4731 9176,5066 9051,5066 "/>
   <path id="12" class="fil2" d="M9788 4688c0,-139 38,-242 114,-309 63,-56 140,-84 231,-84 102,0 184,34 249,102 64,67 96,161 96,281 0,97 -14,173 -43,228 -28,56 -69,99 -124,130 -54,31 -113,46 -178,46 -103,0 -186,-34 -250,-102 -63,-67 -95,-165 -95,-292zm128 1c0,96 20,168 62,216 41,48 93,72 155,72 62,0 114,-24 155,-72 42,-48 62,-122 62,-220 0,-94 -21,-164 -62,-212 -42,-48 -93,-72 -155,-72 -62,0 -114,24 -155,72 -42,47 -62,119 -62,216z"/>
   <path id="13" class="fil2" d="M11127 4822l129 17c-20,77 -57,137 -112,179 -55,43 -125,64 -211,64 -107,0 -192,-34 -255,-102 -63,-68 -95,-163 -95,-285 0,-127 32,-225 96,-295 63,-70 146,-105 247,-105 99,0 179,34 241,103 62,68 94,165 94,289 0,8 -1,19 -1,34l-549 0c5,83 27,146 69,190 41,44 92,66 153,66 46,0 85,-12 117,-37 33,-25 58,-64 77,-118zm-409 -206l410 0c-5,-63 -21,-111 -47,-142 -39,-50 -91,-74 -154,-74 -57,0 -105,19 -144,59 -39,39 -61,91 -65,157z"/>
   <path id="14" class="fil2" d="M11762 4688c0,-139 38,-242 114,-309 63,-56 140,-84 231,-84 101,0 184,34 249,102 64,67 96,161 96,281 0,97 -14,173 -43,228 -28,56 -70,99 -124,130 -54,31 -113,46 -178,46 -103,0 -186,-34 -250,-102 -64,-67 -95,-165 -95,-292zm128 1c0,96 20,168 61,216 42,48 94,72 156,72 62,0 114,-24 155,-72 42,-48 62,-122 62,-220 0,-94 -21,-164 -62,-212 -42,-48 -93,-72 -155,-72 -62,0 -114,24 -156,72 -41,47 -61,119 -61,216z"/>
   <path id="15" class="fil2" d="M13135 4000l111 1c-5,51 -16,86 -33,106 -17,20 -38,33 -65,38 -26,6 -78,9 -156,9 -102,0 -173,10 -210,30 -37,21 -64,53 -80,98 -17,45 -26,102 -28,173 32,-48 69,-84 111,-108 42,-24 89,-36 142,-36 96,0 176,34 240,102 63,68 94,160 94,276 0,88 -15,160 -47,216 -32,56 -70,100 -114,131 -43,31 -103,46 -178,46 -88,0 -156,-20 -204,-61 -49,-41 -86,-94 -112,-158 -26,-63 -39,-175 -39,-333 0,-199 33,-333 99,-402 65,-69 166,-104 303,-104 84,0 133,-1 144,-4 12,-3 19,-10 22,-20zm-4 685c0,-78 -18,-143 -55,-193 -36,-50 -87,-75 -153,-75 -69,0 -122,27 -159,80 -38,53 -56,123 -56,211 0,88 20,155 62,201 41,46 92,70 152,70 62,0 113,-27 151,-81 39,-53 58,-125 58,-213z"/>
   <path id="16" class="fil2" d="M13375 5356l-14 -118c27,7 51,11 71,11 28,0 50,-5 67,-14 17,-10 30,-23 41,-40 8,-13 21,-45 38,-95 2,-7 6,-18 11,-32l-279 -757 133 0 154 436c20,55 38,113 54,174 14,-57 31,-114 51,-170l157 -440 125 0 -279 768c-30,83 -53,139 -70,171 -22,42 -48,72 -76,92 -29,20 -64,29 -103,29 -25,0 -52,-5 -81,-15z"/>
   <path id="17" class="fil2" d="M14044 4311l125 0 0 142c0,62 3,107 11,134 7,28 24,52 51,73 28,20 62,31 103,31 48,0 109,-13 184,-39l0 -341 125 0 0 755 -125 0 0 -305c-77,25 -149,37 -216,37 -56,0 -105,-14 -148,-43 -43,-30 -72,-65 -87,-107 -16,-43 -23,-89 -23,-139l0 -198z"/>
   <path id="18" class="fil2" d="M15333 4822l129 17c-20,77 -58,137 -113,179 -54,43 -124,64 -210,64 -107,0 -192,-34 -255,-102 -63,-68 -95,-163 -95,-285 0,-127 32,-225 96,-295 63,-70 146,-105 247,-105 98,0 179,34 241,103 62,68 93,165 93,289 0,8 0,19 0,34l-549 0c5,83 27,146 69,190 41,44 92,66 153,66 46,0 85,-12 117,-37 32,-25 58,-64 77,-118zm-409 -206l410 0c-5,-63 -21,-111 -47,-142 -39,-50 -91,-74 -154,-74 -57,0 -105,19 -144,59 -39,39 -61,91 -65,157z"/>
   <polygon id="19" class="fil2" points="15620,4311 15745,4311 15745,4625 16092,4625 16092,4311 16216,4311 16216,5066 16092,5066 16092,4731 15745,4731 15745,5066 15620,5066 "/>
   <polygon id="20" class="fil2" points="16404,4311 16529,4311 16529,4887 16876,4311 17010,4311 17010,5066 16885,5066 16885,4494 16539,5066 16404,5066 "/>
   <path id="21" class="fil2" d="M17700 4822l129 17c-20,77 -58,137 -113,179 -54,43 -124,64 -210,64 -107,0 -193,-34 -255,-102 -63,-68 -95,-163 -95,-285 0,-127 32,-225 95,-295 64,-70 147,-105 248,-105 98,0 179,34 241,103 62,68 93,165 93,289 0,8 0,19 0,34l-549 0c5,83 27,146 68,190 42,44 93,66 154,66 46,0 85,-12 117,-37 32,-25 58,-64 77,-118zm-409 -206l410 0c-5,-63 -21,-111 -47,-142 -39,-50 -91,-74 -154,-74 -57,0 -105,19 -144,59 -39,39 -61,91 -65,157z"/>
   <path id="22" class="fil2" d="M18382 4311l287 0c71,0 123,6 158,18 34,12 63,34 88,66 25,33 37,72 37,117 0,36 -7,67 -21,94 -15,27 -37,49 -66,67 34,12 63,34 86,67 23,32 34,71 34,115 -5,72 -30,125 -75,159 -45,35 -111,52 -197,52l-331 0 0 -755zm125 318l132 0c53,0 89,-2 109,-8 20,-6 37,-17 53,-35 16,-17 23,-38 23,-62 0,-40 -13,-68 -40,-83 -28,-16 -75,-24 -141,-24l-136 0 0 212zm0 332l163 0c71,0 120,-8 146,-25 26,-17 40,-46 41,-87 0,-24 -7,-47 -22,-68 -16,-20 -36,-33 -60,-39 -24,-5 -64,-8 -118,-8l-150 0 0 227z"/>
   <path id="23" class="fil2" d="M19073 4688c0,-139 38,-242 114,-309 63,-56 141,-84 232,-84 101,0 184,34 248,102 64,67 96,161 96,281 0,97 -14,173 -42,228 -29,56 -70,99 -125,130 -54,31 -113,46 -177,46 -104,0 -187,-34 -250,-102 -64,-67 -96,-165 -96,-292zm128 1c0,96 21,168 62,216 41,48 93,72 156,72 62,0 113,-24 155,-72 41,-48 62,-122 62,-220 0,-94 -21,-164 -63,-212 -41,-48 -93,-72 -154,-72 -63,0 -115,24 -156,72 -41,47 -62,119 -62,216z"/>
   <path id="24" class="fil2" d="M20340 4311l0 326c40,0 68,-8 85,-23 16,-16 39,-61 70,-137 28,-71 54,-117 77,-137 23,-19 59,-29 108,-29l46 0 0 105 -34 0c-33,0 -54,5 -64,15 -9,10 -24,41 -44,93 -19,49 -35,83 -51,102 -16,19 -40,36 -74,52 54,15 107,66 158,154l137 234 -137 0 -133 -234c-28,-47 -51,-78 -72,-93 -20,-15 -44,-22 -72,-22l0 349 -128 0 0 -349c-28,0 -52,7 -72,22 -20,14 -44,45 -71,93l-134 234 -138 0 137 -234c52,-88 105,-139 159,-154 -37,-17 -63,-36 -78,-57 -15,-21 -37,-70 -66,-148 -11,-26 -21,-42 -33,-48 -12,-6 -30,-9 -54,-9 -5,0 -18,1 -36,1l0 -106 17 0c48,0 82,3 102,9 19,6 37,18 53,37 15,20 35,59 60,120 30,75 53,120 69,136 16,16 45,24 85,24l0 -326 128 0z"/>
   <path id="25" class="fil2" d="M20942 4311l514 0 0 650 79 0 0 319 -102 0 0 -214 -581 0 0 214 -102 0 0 -319 65 0c88,-122 131,-339 127,-650zm103 106c-9,245 -46,427 -110,544l396 0 0 -544 -286 0z"/>
   <path id="26" class="fil2" d="M22175 4822l129 17c-20,77 -58,137 -113,179 -54,43 -125,64 -210,64 -107,0 -193,-34 -255,-102 -63,-68 -95,-163 -95,-285 0,-127 32,-225 95,-295 64,-70 147,-105 248,-105 98,0 179,34 241,103 62,68 93,165 93,289 0,8 0,19 0,34l-549 0c5,83 27,146 68,190 41,44 93,66 154,66 46,0 85,-12 117,-37 32,-25 58,-64 77,-118zm-409 -206l410 0c-5,-63 -21,-111 -47,-142 -39,-50 -91,-74 -154,-74 -57,0 -105,19 -144,59 -39,39 -61,91 -65,157z"/>
   <polygon id="27" class="fil2" points="22462,4311 22587,4311 22587,4625 22933,4625 22933,4311 23058,4311 23058,5066 22933,5066 22933,4731 22587,4731 22587,5066 22462,5066 "/>
   <polygon id="28" class="fil2" points="23246,4311 23371,4311 23371,4887 23718,4311 23852,4311 23852,5066 23727,5066 23727,4494 23381,5066 23246,5066 "/>
   <path id="29" class="fil2" d="M24041 4311l125 0 0 316 152 0c11,-108 44,-190 98,-247 55,-57 126,-85 213,-85 75,0 133,15 176,46 43,31 79,73 107,127 28,54 42,126 42,217 0,130 -29,229 -87,296 -58,67 -136,101 -235,101 -92,0 -165,-31 -221,-94 -55,-62 -87,-148 -93,-257l-152 0 0 335 -125 0 0 -755zm595 93c-61,0 -108,24 -142,72 -35,48 -51,115 -51,202 0,103 16,179 51,227 34,48 80,72 137,72 57,0 104,-22 140,-67 37,-44 55,-116 55,-216 0,-96 -16,-169 -48,-217 -31,-49 -78,-73 -142,-73z"/>
   <rect class="fil3" x="12451" y="92" width="418" height="3381"/>
  </g>
 </g>
</svg>
