<?xml version="1.0" encoding="UTF-8"?>
<!DOCTYPE svg PUBLIC "-//W3C//DTD SVG 1.1//EN" "http://www.w3.org/Graphics/SVG/1.1/DTD/svg11.dtd">
<!-- Creator: CorelDRAW X8 -->
<svg xmlns="http://www.w3.org/2000/svg" xml:space="preserve" width="262px" height="49px" version="1.1" style="shape-rendering:geometricPrecision; text-rendering:geometricPrecision; image-rendering:optimizeQuality; fill-rule:evenodd; clip-rule:evenodd"
viewBox="0 0 2620 490"
 xmlns:xlink="http://www.w3.org/1999/xlink">
 <defs>
  <style type="text/css">
   <![CDATA[
    .fil1 {fill:#FFCB11}
    .fil0 {fill:black;fill-rule:nonzero}
   ]]>
  </style>
 </defs>
 <g id="Слой_x0020_1">
  <metadata id="CorelCorpID_0Corel-Layer"/>
  <path class="fil0" d="M160 253c-2,-6 -5,-13 -7,-21 -3,-7 -5,-14 -8,-21l-76 0c-2,7 -5,14 -7,22 -3,7 -5,14 -7,20l-46 0c8,-21 15,-40 21,-58 7,-18 13,-35 20,-50 6,-16 12,-31 18,-45 6,-14 13,-28 19,-42l42 0c6,14 13,28 19,42 6,14 12,29 19,45 6,15 12,32 19,50 7,18 14,37 21,58l-47 0zm-53 -150c-1,2 -2,6 -4,11 -2,5 -4,11 -7,17 -2,6 -5,13 -8,21 -3,8 -6,16 -9,24l56 0c-3,-8 -6,-16 -9,-24 -2,-8 -5,-15 -8,-21 -2,-7 -4,-12 -6,-17 -2,-5 -4,-9 -5,-11zm190 153c-11,0 -21,0 -32,-1 -11,-1 -22,-2 -33,-5l0 -189c9,-2 19,-3 29,-4 11,0 21,-1 30,-1 13,0 24,1 34,3 11,2 20,5 27,9 8,4 14,10 18,17 4,7 6,16 6,26 0,16 -7,28 -22,37 12,5 21,11 25,19 5,8 7,17 7,27 0,21 -8,36 -23,46 -14,11 -37,16 -66,16zm-22 -88l0 51c3,0 6,0 10,1 4,0 8,0 12,0 14,0 24,-2 32,-6 8,-4 12,-10 12,-21 0,-9 -3,-15 -10,-19 -6,-4 -16,-6 -29,-6l-27 0zm0 -33l21 0c14,0 23,-2 29,-5 6,-4 9,-9 9,-17 0,-8 -3,-13 -9,-17 -6,-3 -15,-4 -27,-4 -3,0 -7,0 -12,0 -4,0 -8,0 -11,0l0 43zm286 -77l0 38 -59 0 0 157 -44 0 0 -157 -59 0 0 -38 162 0zm58 98c0,9 1,18 4,26 2,7 5,14 10,19 4,6 10,10 16,13 6,3 14,5 22,5 8,0 15,-2 22,-5 6,-3 12,-7 16,-13 4,-5 8,-12 10,-19 3,-8 4,-17 4,-26 0,-10 -1,-19 -4,-26 -2,-8 -6,-15 -10,-20 -4,-6 -10,-10 -16,-13 -7,-3 -14,-5 -22,-5 -8,0 -16,2 -22,5 -6,3 -12,7 -16,13 -5,6 -8,12 -10,20 -3,8 -4,16 -4,26zm149 0c0,16 -2,31 -7,44 -5,12 -12,23 -21,32 -8,8 -19,15 -31,19 -12,4 -24,6 -38,6 -13,0 -26,-2 -38,-6 -12,-4 -22,-11 -31,-19 -9,-9 -16,-20 -21,-32 -5,-13 -7,-28 -7,-44 0,-17 2,-32 8,-44 5,-13 12,-24 21,-32 9,-9 19,-15 31,-20 12,-4 24,-6 37,-6 13,0 26,2 38,6 11,5 22,11 31,20 8,8 15,19 20,32 5,12 8,27 8,44z"/>
  <path class="fil0" d="M892 253l0 -195 19 0 0 159c6,-11 14,-23 23,-36 9,-14 19,-29 29,-43 11,-15 21,-29 32,-43 11,-14 22,-26 31,-37l15 0 0 195 -19 0 0 -164c-5,6 -11,14 -18,22 -7,9 -14,19 -21,29 -7,10 -15,20 -22,31 -7,10 -14,21 -21,31 -6,10 -12,19 -18,28 -5,9 -10,17 -14,23l-16 0zm325 -195l19 0 0 195 -19 0 0 -94 -106 0 0 94 -19 0 0 -195 19 0 0 85 106 0 0 -85zm151 199c-13,0 -25,-2 -35,-6 -11,-5 -20,-12 -28,-20 -8,-9 -15,-19 -19,-32 -5,-13 -7,-27 -7,-44 0,-16 2,-30 7,-43 5,-13 12,-23 20,-32 8,-9 18,-15 29,-20 11,-4 22,-6 34,-6 7,0 14,0 20,1 6,1 11,2 16,4 4,1 8,3 11,4 3,1 6,3 7,4l-6 16c-4,-2 -10,-5 -18,-8 -7,-3 -16,-4 -27,-4 -12,0 -22,2 -31,6 -10,4 -17,10 -23,18 -7,7 -11,16 -14,26 -3,11 -5,22 -5,35 0,13 2,24 5,35 3,10 7,19 13,26 6,8 14,13 22,17 9,4 19,6 30,6 13,0 23,-1 31,-3 9,-3 15,-5 19,-8l6 17c-1,1 -4,2 -7,3 -3,1 -7,2 -12,4 -5,1 -11,2 -17,3 -6,1 -13,1 -21,1zm219 -199l0 17 -63 0 0 178 -19 0 0 -178 -62 0 0 -17 144 0zm79 -2c28,0 48,6 62,16 13,11 20,26 20,45 0,11 -2,20 -6,28 -4,8 -9,14 -17,19 -7,5 -16,8 -27,10 -10,3 -22,4 -35,4l-27 0 0 75 -19 0 0 -191c7,-2 15,-4 24,-4 9,-1 17,-2 25,-2zm1 17c-7,0 -13,0 -18,1 -5,0 -9,1 -13,1l0 86 24 0c11,0 20,-1 28,-2 9,-1 16,-3 22,-7 6,-3 10,-7 13,-13 4,-6 5,-13 5,-22 0,-9 -2,-16 -5,-22 -3,-5 -8,-10 -14,-13 -6,-3 -12,-6 -19,-7 -8,-1 -15,-2 -23,-2zm179 112c4,-9 8,-19 12,-29 4,-11 8,-21 12,-33 4,-11 8,-22 11,-33 4,-11 7,-22 9,-32l21 0c-4,13 -8,25 -12,37 -4,11 -8,23 -12,33 -4,11 -8,22 -12,32 -4,11 -9,21 -14,31 -3,7 -6,14 -9,22 -4,7 -8,14 -14,21 -5,6 -11,11 -19,15 -8,4 -17,6 -28,6 -5,0 -9,0 -13,-2 -4,-1 -6,-2 -8,-2l4 -16c1,1 3,1 6,2 3,1 7,2 12,2 6,0 12,-1 17,-3 5,-2 9,-4 12,-8 4,-3 7,-7 9,-11 3,-4 5,-9 7,-13 -8,-14 -16,-27 -24,-40 -7,-13 -14,-26 -20,-39 -6,-13 -12,-24 -17,-36 -5,-11 -9,-22 -13,-31l22 0c6,17 15,37 25,59 10,22 22,45 36,68zm212 68c-7,-10 -14,-19 -22,-29 -8,-10 -16,-19 -25,-27 -9,-8 -18,-16 -27,-23 -9,-7 -18,-13 -26,-18l0 97 -19 0 0 -195 19 0 0 91c7,-7 15,-14 24,-22 8,-9 17,-17 26,-25 8,-9 16,-17 24,-25 7,-7 13,-14 18,-19l23 0c-6,6 -12,13 -20,21 -8,8 -16,16 -25,24 -8,9 -17,17 -25,25 -9,8 -16,15 -23,22 5,3 11,7 17,12 7,5 13,11 19,17 7,5 13,12 20,18 6,7 12,13 17,20 6,6 11,13 15,19 5,6 8,12 11,17l-21 0zm178 -195l0 17 -63 0 0 178 -19 0 0 -178 -62 0 0 -17 144 0zm201 97c0,17 -3,32 -8,45 -4,12 -11,23 -19,32 -9,8 -18,15 -30,19 -11,4 -22,6 -35,6 -12,0 -24,-2 -35,-6 -11,-4 -21,-11 -29,-19 -8,-9 -15,-20 -20,-32 -5,-13 -7,-28 -7,-45 0,-16 2,-31 7,-44 5,-12 12,-23 20,-31 8,-9 18,-15 29,-20 11,-4 23,-6 35,-6 13,0 24,2 35,6 12,5 21,11 30,20 8,8 15,19 19,31 5,13 8,28 8,44zm-21 0c0,-13 -1,-24 -5,-35 -3,-10 -8,-19 -14,-26 -6,-8 -14,-13 -22,-17 -9,-4 -19,-6 -30,-6 -11,0 -20,2 -29,6 -9,4 -16,9 -22,17 -7,7 -11,16 -15,26 -3,11 -5,22 -5,35 0,14 2,25 5,36 4,10 8,19 15,26 6,8 13,13 22,17 9,4 18,6 29,6 11,0 21,-2 30,-6 8,-4 16,-9 22,-17 6,-7 11,-16 14,-26 4,-11 5,-22 5,-36zm113 -99c27,0 48,6 61,16 14,11 21,26 21,45 0,11 -2,20 -6,28 -4,8 -10,14 -17,19 -7,5 -16,8 -27,10 -11,3 -23,4 -36,4l-26 0 0 75 -19 0 0 -191c6,-2 14,-4 23,-4 9,-1 18,-2 26,-2zm1 17c-8,0 -14,0 -19,1 -5,0 -9,1 -12,1l0 86 24 0c10,0 20,-1 28,-2 8,-1 15,-3 21,-7 6,-3 11,-7 14,-13 3,-6 5,-13 5,-22 0,-9 -2,-16 -6,-22 -3,-5 -8,-10 -13,-13 -6,-3 -13,-6 -20,-7 -7,-1 -15,-2 -22,-2z"/>
  <path class="fil0" d="M94 452l-14 0 0 -76 -52 76 -11 0 0 -102 13 0 0 76 53 -76 11 0 0 102zm71 -42l0 -31 12 0 0 73 -12 0 0 -30 -38 0 0 30 -13 0 0 -73 13 0 0 31 38 0zm94 -31l0 61 10 0 0 32 -12 0 0 -20 -55 0 0 20 -12 0 0 -32 9 0c4,-6 7,-15 7,-27l0 -34 53 0zm-46 61l34 0 0 -49 -29 0 0 22c0,11 -2,20 -5,27zm83 -9l40 -52 10 0 0 73 -12 0 0 -51 -41 51 -10 0 0 -73 13 0 0 52zm118 -16c8,3 11,9 11,17 0,6 -2,11 -6,15 -4,3 -10,5 -17,5l-36 0 0 -73 33 0c7,0 13,2 17,6 4,3 6,8 6,14 0,7 -3,12 -8,16zm-15 -24l-21 0 0 19 21 0c7,0 11,-3 11,-10 0,-6 -4,-9 -11,-9zm-21 50l23 0c4,0 7,-1 9,-3 2,-2 3,-4 3,-7 0,-3 -1,-6 -3,-7 -2,-2 -5,-3 -9,-3l-23 0 0 20zm74 -10l40 -52 10 0 0 73 -12 0 0 -51 -41 51 -10 0 0 -73 13 0 0 52zm132 -52l0 61 10 0 0 32 -12 0 0 -20 -55 0 0 20 -12 0 0 -32 8 0c5,-6 7,-15 7,-27l0 -34 54 0zm-46 61l34 0 0 -49 -29 0 0 22c0,11 -2,20 -5,27zm97 -3l21 -58 14 0 -30 78c-3,8 -8,14 -13,19 -6,4 -12,6 -19,5l0 -11c8,0 15,-5 19,-15l1 -3 -31 -73 13 0 25 58zm103 -45l0 -13 12 0 0 73 -12 0 0 -12c-6,9 -16,14 -28,14 -10,0 -19,-4 -26,-11 -7,-7 -11,-17 -11,-27 0,-11 4,-20 11,-27 7,-8 16,-12 26,-12 12,0 22,5 28,15zm-26 50c7,0 13,-3 18,-8 5,-5 8,-11 8,-18 0,-8 -3,-14 -8,-19 -5,-5 -11,-7 -18,-7 -7,0 -14,2 -19,7 -5,5 -7,11 -7,19 0,7 2,13 7,18 5,5 12,8 19,8zm64 -63l55 0 0 73 -13 0 0 -60 -29 0 0 29c0,12 -2,20 -7,25 -5,5 -11,7 -20,6l0 -12c5,1 8,0 11,-3 2,-3 3,-8 3,-16l0 -42zm87 27l18 0c7,0 13,2 18,6 5,4 7,10 7,17 0,7 -2,12 -7,17 -5,4 -11,6 -18,6l-31 0 0 -73 13 0 0 27zm0 34l18 0c3,0 6,-1 9,-3 2,-2 3,-5 3,-8 0,-3 -1,-6 -3,-8 -3,-3 -6,-4 -9,-4l-18 0 0 23zm107 -30l0 -31 13 0 0 73 -13 0 0 -30 -38 0 0 30 -12 0 0 -73 12 0 0 31 38 0zm94 33c-8,7 -17,11 -28,11 -10,0 -19,-4 -27,-11 -7,-7 -11,-16 -11,-27 0,-11 4,-20 11,-27 8,-8 17,-12 27,-12 11,0 20,4 28,12 7,7 11,16 11,27 0,10 -4,20 -11,27zm-28 -1c8,0 14,-3 19,-8 5,-5 7,-11 7,-18 0,-8 -2,-14 -7,-19 -5,-5 -11,-7 -19,-7 -7,0 -13,2 -18,7 -5,5 -7,11 -7,19 0,7 2,13 7,18 5,5 11,8 18,8zm124 -20l-61 0c1,6 4,11 9,15 4,3 10,5 17,5 10,0 17,-3 21,-10l11 6c-7,11 -18,16 -32,16 -11,0 -21,-3 -28,-11 -8,-7 -11,-16 -11,-27 0,-11 3,-20 11,-28 7,-7 16,-11 27,-11 11,0 20,4 26,12 7,7 10,16 10,27 0,2 0,4 0,6zm-36 -33c-7,0 -12,2 -17,6 -4,4 -7,9 -8,16l49 0c-1,-7 -4,-12 -8,-16 -5,-4 -10,-6 -16,-6zm149 54c-7,7 -16,11 -27,11 -11,0 -20,-4 -27,-11 -8,-7 -12,-16 -12,-27 0,-11 4,-20 12,-27 7,-8 16,-12 27,-12 11,0 20,4 27,12 8,7 11,16 11,27 0,10 -3,20 -11,27zm-27 -1c7,0 13,-3 18,-8 5,-5 8,-11 8,-18 0,-8 -3,-14 -8,-19 -5,-5 -11,-7 -18,-7 -7,0 -13,2 -18,7 -5,5 -8,11 -8,19 0,7 3,13 8,18 5,5 11,8 18,8zm86 12c-10,0 -19,-3 -26,-10 -7,-8 -11,-17 -11,-28 0,-12 2,-22 6,-29 3,-6 11,-12 22,-18 1,0 1,-1 2,-1 1,0 2,-1 3,-1 2,-1 3,-1 3,-2l8 -3c8,-4 12,-9 13,-14l10 6c-1,3 -2,6 -3,8 -1,0 -1,0 -1,1 -1,1 -1,1 -1,1 -1,1 -1,1 -1,1 -1,1 -1,1 -2,2 0,0 -1,0 -1,1 -4,2 -6,3 -8,4 -1,0 -1,1 -2,1 0,0 -1,1 -1,1 -1,0 -1,0 -1,0l-5 2 -5 2c-6,3 -11,6 -14,9 -3,3 -6,6 -7,11 3,-4 7,-7 12,-9 4,-2 9,-3 14,-3 9,0 17,4 23,10 6,6 10,14 10,24 0,10 -4,18 -11,25 -6,6 -15,9 -26,9zm24 -34c0,-7 -2,-12 -6,-16 -5,-4 -10,-6 -17,-6 -6,0 -12,2 -17,6 -5,4 -7,9 -7,15 0,7 2,12 6,16 5,5 11,7 17,7 7,0 13,-2 17,-6 5,-5 7,-10 7,-16zm53 17l21 -58 14 0 -30 78c-3,8 -8,14 -13,19 -6,4 -12,6 -20,5l0 -11c9,0 16,-5 20,-15l1 -3 -31 -73 13 0 25 58zm91 -23l0 -35 13 0 0 73 -13 0 0 -26c-6,3 -12,4 -19,4 -10,0 -17,-2 -22,-7 -5,-4 -8,-11 -8,-19l0 -25 13 0 0 24c0,5 1,9 4,11 3,3 7,4 13,4 7,0 13,-1 19,-4zm102 8l-61 0c1,6 4,11 9,15 5,3 10,5 17,5 10,0 17,-3 22,-10l10 6c-7,11 -18,16 -32,16 -11,0 -21,-3 -28,-11 -7,-7 -11,-16 -11,-27 0,-11 4,-20 11,-28 7,-7 16,-11 27,-11 11,0 20,4 26,12 7,7 11,16 11,27 0,2 0,4 -1,6zm-36 -33c-6,0 -12,2 -17,6 -4,4 -7,9 -8,16l49 0c-1,-7 -4,-12 -8,-16 -4,-4 -10,-6 -16,-6zm102 21l0 -31 12 0 0 73 -12 0 0 -30 -38 0 0 30 -13 0 0 -73 13 0 0 31 38 0zm44 21l41 -52 10 0 0 73 -13 0 0 -51 -40 51 -10 0 0 -73 12 0 0 52zm140 -9l-61 0c1,6 4,11 9,15 5,3 10,5 17,5 10,0 17,-3 21,-10l11 6c-7,11 -18,16 -32,16 -11,0 -21,-3 -28,-11 -7,-7 -11,-16 -11,-27 0,-11 4,-20 11,-28 7,-7 16,-11 27,-11 11,0 20,4 26,12 7,7 11,16 11,27 0,2 -1,4 -1,6zm-36 -33c-6,0 -12,2 -17,6 -4,4 -7,9 -8,16l49 0c-1,-7 -4,-12 -8,-16 -5,-4 -10,-6 -16,-6zm136 26c8,3 11,9 11,17 0,6 -2,11 -6,15 -4,3 -10,5 -17,5l-36 0 0 -73 33 0c7,0 13,2 17,6 4,3 6,8 6,14 0,7 -3,12 -8,16zm-15 -24l-21 0 0 19 21 0c7,0 11,-3 11,-10 0,-6 -4,-9 -11,-9zm-21 50l23 0c4,0 7,-1 9,-3 2,-2 3,-4 3,-7 0,-3 -1,-6 -3,-7 -2,-2 -5,-3 -9,-3l-23 0 0 20zm123 2c-8,7 -17,11 -28,11 -10,0 -19,-4 -27,-11 -7,-7 -11,-16 -11,-27 0,-11 4,-20 11,-27 8,-8 17,-12 27,-12 11,0 20,4 28,12 7,7 11,16 11,27 0,10 -4,20 -11,27zm-28 -1c8,0 14,-3 19,-8 5,-5 7,-11 7,-18 0,-8 -2,-14 -7,-19 -5,-5 -11,-7 -19,-7 -7,0 -13,2 -18,7 -5,5 -7,11 -7,19 0,7 2,13 7,18 5,5 11,8 18,8zm107 -27l31 37 -15 0 -27 -34 0 34 -13 0 0 -34 -27 34 -15 0 31 -37 -29 -36 14 0 26 33 0 -33 13 0 0 33 26 -33 14 0 -29 36zm106 -36l0 61 10 0 0 32 -13 0 0 -20 -54 0 0 20 -13 0 0 -32 9 0c5,-6 7,-15 7,-27l0 -34 54 0zm-47 61l34 0 0 -49 -29 0 0 22c0,11 -1,20 -5,27zm138 -18l-62 0c2,6 5,11 9,15 5,3 11,5 18,5 10,0 17,-3 21,-10l11 6c-7,11 -18,16 -32,16 -12,0 -21,-3 -29,-11 -7,-7 -10,-16 -10,-27 0,-11 3,-20 10,-28 7,-7 16,-11 28,-11 10,0 19,4 26,12 7,7 10,16 10,27 0,2 0,4 0,6zm-36 -33c-7,0 -13,2 -17,6 -5,4 -7,9 -9,16l49 0c-1,-7 -4,-12 -8,-16 -4,-4 -9,-6 -15,-6zm101 21l0 -31 13 0 0 73 -13 0 0 -30 -38 0 0 30 -12 0 0 -73 12 0 0 31 38 0zm45 21l40 -52 10 0 0 73 -12 0 0 -51 -41 51 -10 0 0 -73 13 0 0 52zm133 -54c11,0 20,4 27,12 8,7 12,16 12,27 0,10 -4,20 -12,27 -7,7 -16,11 -27,11 -9,0 -18,-3 -25,-9 -7,-6 -11,-14 -12,-23l-14 0 0 30 -12 0 0 -73 12 0 0 31 14 0c1,-10 5,-17 12,-23 8,-7 16,-10 25,-10zm0 65c7,0 14,-3 18,-8 5,-5 8,-11 8,-18 0,-8 -3,-14 -8,-19 -4,-5 -11,-7 -18,-7 -7,0 -13,2 -18,7 -5,5 -8,11 -8,19 0,7 3,13 8,18 5,5 11,8 18,8z"/>
  <rect class="fil1" x="817" y="8" width="29.9991" height="295.002"/>
 </g>
</svg>
