<?xml version="1.0" encoding="UTF-8"?>
<!DOCTYPE svg PUBLIC "-//W3C//DTD SVG 1.1//EN" "http://www.w3.org/Graphics/SVG/1.1/DTD/svg11.dtd">
<!-- Creator: CorelDRAW X8 -->
<svg xmlns="http://www.w3.org/2000/svg" xml:space="preserve" width="275px" height="60px" version="1.1" style="shape-rendering:geometricPrecision; text-rendering:geometricPrecision; image-rendering:optimizeQuality; fill-rule:evenodd; clip-rule:evenodd"
viewBox="0 0 27500 6000"
 xmlns:xlink="http://www.w3.org/1999/xlink">
 <defs>
  <style type="text/css">
   <![CDATA[
    .fil0 {fill:black}
    .fil1 {fill:#FFBE03}
    .fil2 {fill:white;fill-rule:nonzero}
   ]]>
  </style>
 </defs>
 <g id="Слой_x0020_1">
  <metadata id="CorelCorpID_0Corel-Layer"/>
  <path class="fil0" d="M1457 2384l1038 0c76,0 137,-61 137,-137 0,-362 -294,-657 -656,-657 -362,0 -657,295 -657,657 0,76 62,137 138,137zm519 -519c162,0 301,102 356,245l-712 0c55,-143 194,-245 356,-245l0 0zm0 0z"/>
  <circle class="fil1" cx="1976" cy="1987" r="1938"/>
  <g id="_1007082160">
   <g>
    <path class="fil0" d="M962 2232l12 0c41,160 187,279 360,279 173,0 318,-119 360,-279l564 0c41,160 187,279 360,279 173,0 319,-119 360,-279l309 0c51,0 92,-41 92,-93l0 -163c0,-336 -251,-615 -576,-658 -43,-418 -398,-745 -827,-745 -430,0 -784,327 -828,745 -324,43 -576,322 -576,658l0 163c0,52 42,93 93,93l111 0 186 0zm558 -93c0,103 -84,187 -186,187 -103,0 -187,-84 -187,-187 0,-102 84,-186 187,-186 102,0 186,84 186,186zm1285 0c0,103 -84,187 -187,187 -103,0 -187,-84 -187,-187 0,-102 84,-186 187,-186 103,0 187,84 187,186zm-2048 -163c0,-264 215,-479 479,-479 52,0 93,-41 93,-92 0,-357 290,-647 647,-647 356,0 647,290 647,647 0,51 41,92 92,92 264,0 479,215 479,479l0 71 -216 0c-41,-160 -187,-279 -360,-279 -173,0 -319,119 -360,279l-564 0c-42,-160 -187,-279 -360,-279 -173,0 -319,119 -360,279l-217 0 0 -71z"/>
   </g>
   <path class="fil0" d="M1976 3402c-436,0 -838,-220 -1074,-589 -27,-42 -15,-98 27,-125 43,-28 99,-16 126,27 203,316 547,505 921,505 374,0 718,-189 920,-505 27,-43 84,-55 126,-28 43,27 55,84 28,126 -236,369 -638,589 -1074,589zm0 0z"/>
  </g>
  <polygon class="fil2" points="4668,3347 5276,3347 5276,2278 6595,2278 6595,1725 5276,1725 5276,1137 6772,1137 6772,584 4668,584 "/>
  <path id="1" class="fil2" d="M8517 3391c742,0 1211,-411 1211,-1247l0 -1560 -607 0 0 1583c0,438 -225,663 -596,663 -371,0 -596,-233 -596,-683l0 -1563 -608 0 0 1579c0,813 454,1228 1196,1228z"/>
  <polygon id="2" class="fil2" points="10455,3347 11055,3347 11055,1591 12393,3347 12910,3347 12910,584 12310,584 12310,2286 11015,584 10455,584 "/>
  <path id="3" class="fil2" d="M14836 3347l920 0c868,0 1468,-604 1468,-1381 0,-785 -600,-1382 -1468,-1382l-920 0 0 2763zm205 -189l0 -2384 715 0c769,0 1255,537 1255,1192 0,667 -486,1192 -1255,1192l-715 0z"/>
  <path id="4" class="fil2" d="M18029 3347l205 0 0 -1144 904 0 880 1144 261 0 -912 -1180c466,-63 809,-327 809,-789 0,-205 -79,-391 -209,-521 -166,-166 -438,-273 -778,-273l-1160 0 0 2763zm205 -1330l0 -1243 944 0c501,0 793,233 793,604 0,406 -343,639 -805,639l-932 0z"/>
  <polygon id="5" class="fil2" points="21017,3347 21222,3347 21222,584 21017,584 "/>
  <polygon id="6" class="fil2" points="23156,3367 23338,3367 24553,584 24336,584 23251,3126 22170,584 21941,584 "/>
  <polygon id="7" class="fil2" points="25244,3347 27230,3347 27230,3158 25449,3158 25449,2049 27032,2049 27032,1859 25449,1859 25449,774 27210,774 27210,584 25244,584 "/>
  <polygon class="fil2" points="224,4638 358,4638 358,5441 954,4638 1101,4638 1101,5653 967,5653 967,4852 372,5653 224,5653 "/>
  <polygon id="1" class="fil2" points="1327,4918 1465,4918 1465,5223 1846,5223 1846,4918 1984,4918 1984,5653 1846,5653 1846,5327 1465,5327 1465,5653 1327,5653 "/>
  <path id="2" class="fil2" d="M2298 4918l566 0 0 633 88 0 0 310 -113 0 0 -208 -639 0 0 208 -113 0 0 -310 72 0c97,-120 144,-331 139,-633zm115 103c-11,238 -51,415 -122,530l436 0 0 -530 -314 0z"/>
  <polygon id="3" class="fil2" points="3103,4918 3240,4918 3240,5478 3623,4918 3770,4918 3770,5653 3633,5653 3633,5096 3251,5653 3103,5653 "/>
  <path id="4" class="fil2" d="M3976 4918l317 0c77,0 135,5 173,17 38,12 71,33 98,65 27,32 41,69 41,113 0,35 -8,66 -24,92 -16,26 -40,48 -73,65 38,12 70,33 95,65 25,31 38,69 38,112 -5,70 -33,122 -83,155 -50,34 -122,51 -217,51l-365 0 0 -735zm138 310l146 0c58,0 98,-3 120,-9 21,-5 41,-16 58,-33 17,-17 26,-37 26,-61 0,-39 -15,-66 -45,-81 -30,-16 -82,-23 -155,-23l-150 0 0 207zm0 323l180 0c78,0 131,-9 160,-25 29,-16 44,-45 46,-85 0,-23 -8,-45 -25,-65 -17,-20 -39,-33 -66,-38 -27,-6 -70,-8 -129,-8l-166 0 0 221z"/>
  <polygon id="5" class="fil2" points="4807,4918 4944,4918 4944,5478 5327,4918 5474,4918 5474,5653 5337,5653 5337,5096 4955,5653 4807,5653 "/>
  <path id="6" class="fil2" d="M5788 4918l566 0 0 633 88 0 0 310 -113 0 0 -208 -639 0 0 208 -113 0 0 -310 72 0c97,-120 143,-331 139,-633zm114 103c-10,238 -51,415 -122,530l436 0 0 -530 -314 0z"/>
  <path id="7" class="fil2" d="M6586 5935l-15 -115c30,7 56,11 78,11 31,0 55,-5 74,-14 18,-9 33,-22 45,-39 9,-12 23,-43 42,-93 3,-6 6,-17 12,-30l-308 -737 147 0 170 424c22,54 41,110 59,170 16,-56 34,-111 56,-166l173 -428 138 0 -307 747c-33,81 -59,136 -77,166 -25,41 -53,71 -85,90 -31,20 -69,29 -113,29 -27,0 -56,-5 -89,-15z"/>
  <path id="8" class="fil2" d="M7887 5561c-51,39 -101,67 -148,83 -47,16 -98,24 -152,24 -89,0 -157,-19 -205,-59 -48,-39 -72,-89 -72,-151 0,-35 9,-68 27,-98 18,-30 42,-53 71,-71 29,-18 62,-32 99,-41 27,-6 68,-12 122,-19 111,-11 194,-26 246,-42 0,-17 1,-28 1,-33 0,-50 -13,-86 -39,-107 -36,-28 -88,-42 -157,-42 -65,0 -113,11 -144,31 -31,21 -53,57 -68,110l-135 -18c12,-52 33,-94 61,-126 28,-32 68,-57 122,-74 52,-17 114,-26 184,-26 69,0 126,7 169,22 44,15 76,33 96,56 20,22 35,51 43,85 5,21 7,59 7,114l0 166c0,115 3,188 9,219 5,31 16,60 33,89l-144 0c-14,-27 -22,-57 -26,-92zm-11 -277c-50,19 -125,34 -225,47 -57,7 -97,16 -121,25 -23,9 -41,23 -54,40 -13,18 -19,37 -19,59 0,33 14,60 42,82 27,22 68,33 121,33 53,0 100,-10 142,-31 41,-21 71,-49 91,-85 15,-29 22,-70 22,-124l1 -46z"/>
  <path id="9" class="fil2" d="M8293 4918l640 0 0 734 -138 0 0 -631 -364 0 0 366c0,85 -3,141 -9,168 -6,27 -23,51 -50,71 -28,21 -68,31 -120,31 -32,0 -69,-2 -110,-6l0 -103 60 0c28,0 49,-3 61,-8 12,-5 20,-14 24,-26 4,-11 6,-49 6,-112l0 -484z"/>
  <path id="10" class="fil2" d="M9135 4918l138 0 0 287 174 0c113,0 201,20 262,60 61,40 92,95 92,165 0,61 -25,114 -77,157 -51,44 -133,66 -245,66l-344 0 0 -735zm138 633l145 0c87,0 149,-10 187,-29 37,-20 55,-50 55,-91 0,-32 -13,-60 -41,-85 -28,-25 -89,-38 -183,-38l-163 0 0 243z"/>
  <polygon id="11" class="fil2" points="9953,4918 10090,4918 10090,5223 10472,5223 10472,4918 10609,4918 10609,5653 10472,5653 10472,5327 10090,5327 10090,5653 9953,5653 "/>
  <path id="12" class="fil2" d="M10765 5285c0,-136 41,-236 125,-302 69,-54 155,-81 255,-81 111,0 202,33 273,99 71,66 106,157 106,274 0,94 -16,168 -47,222 -31,54 -77,96 -137,126 -59,30 -125,45 -195,45 -114,0 -205,-33 -276,-98 -70,-66 -104,-161 -104,-285zm140 0c0,94 23,165 68,211 46,47 103,70 172,70 68,0 125,-23 171,-70 45,-47 68,-119 68,-215 0,-90 -24,-159 -69,-206 -46,-46 -102,-70 -170,-70 -69,0 -126,23 -172,70 -45,46 -68,117 -68,210z"/>
  <path id="13" class="fil2" d="M12239 5415l142 17c-22,74 -63,133 -124,174 -60,41 -137,62 -232,62 -118,0 -212,-33 -281,-99 -69,-66 -104,-159 -104,-278 0,-123 35,-219 105,-287 70,-68 161,-102 273,-102 108,0 196,33 265,100 69,67 103,161 103,282 0,7 0,18 -1,33l-604 0c5,80 30,142 75,185 45,43 102,64 169,64 51,0 94,-12 129,-36 36,-24 64,-63 85,-115zm-450 -200l451 0c-6,-62 -23,-108 -51,-139 -44,-48 -101,-72 -170,-72 -63,0 -116,19 -159,57 -43,39 -67,90 -71,154z"/>
  <path id="14" class="fil2" d="M12938 5285c0,-136 41,-236 125,-302 70,-54 155,-81 255,-81 111,0 202,33 273,99 71,66 106,157 106,274 0,94 -15,168 -46,222 -32,54 -77,96 -137,126 -60,30 -125,45 -196,45 -114,0 -205,-33 -275,-98 -70,-66 -105,-161 -105,-285zm140 0c0,94 23,165 68,211 46,47 103,70 172,70 68,0 125,-23 171,-70 45,-47 68,-119 68,-215 0,-90 -23,-159 -69,-206 -45,-46 -102,-70 -170,-70 -69,0 -126,23 -172,70 -45,46 -68,117 -68,210z"/>
  <path id="15" class="fil2" d="M14450 4614l122 2c-6,49 -18,84 -37,103 -18,19 -42,32 -71,37 -29,6 -87,9 -172,9 -113,0 -190,10 -231,29 -41,20 -71,52 -89,95 -18,44 -28,100 -30,169 35,-47 75,-82 122,-106 46,-23 98,-34 156,-34 106,0 194,33 264,99 70,66 105,155 105,268 0,86 -18,156 -53,211 -35,55 -77,97 -125,127 -48,30 -114,45 -196,45 -97,0 -172,-20 -225,-60 -53,-39 -94,-90 -123,-153 -28,-62 -43,-170 -43,-324 0,-194 36,-324 109,-392 72,-67 183,-101 333,-101 94,0 147,-1 159,-4 13,-3 21,-9 25,-20zm-5 668c0,-76 -20,-139 -60,-188 -40,-49 -96,-73 -169,-73 -76,0 -134,26 -175,77 -41,52 -62,120 -62,207 0,85 23,150 68,195 46,45 102,68 168,68 69,0 124,-27 166,-79 43,-52 64,-121 64,-207z"/>
  <path id="16" class="fil2" d="M14714 5935l-16 -115c30,7 56,11 79,11 30,0 55,-5 73,-14 19,-9 34,-22 45,-39 9,-12 23,-43 42,-93 3,-6 7,-17 13,-30l-308 -737 147 0 169 424c22,54 42,110 59,170 16,-56 35,-111 57,-166l173 -428 137 0 -307 747c-33,81 -59,136 -77,166 -25,41 -53,71 -84,90 -32,20 -70,29 -114,29 -26,0 -56,-5 -88,-15z"/>
  <path id="17" class="fil2" d="M15450 4918l138 0 0 138c0,60 3,104 11,131 8,27 27,50 58,70 29,20 67,30 113,30 52,0 119,-12 202,-37l0 -332 138 0 0 735 -138 0 0 -297c-85,24 -164,36 -237,36 -62,0 -116,-14 -164,-43 -47,-28 -79,-63 -96,-104 -17,-41 -25,-86 -25,-135l0 -192z"/>
  <path id="18" class="fil2" d="M16869 5415l143 17c-22,74 -64,133 -124,174 -61,41 -138,62 -232,62 -118,0 -212,-33 -281,-99 -70,-66 -104,-159 -104,-278 0,-123 34,-219 105,-287 70,-68 161,-102 272,-102 109,0 197,33 265,100 69,67 103,161 103,282 0,7 0,18 0,33l-605 0c6,80 31,142 76,185 45,43 102,64 169,64 50,0 93,-12 129,-36 36,-24 64,-63 84,-115zm-450 -200l452 0c-6,-62 -24,-108 -52,-139 -43,-48 -100,-72 -170,-72 -63,0 -116,19 -159,57 -42,39 -66,90 -71,154z"/>
  <polygon id="19" class="fil2" points="17185,4918 17323,4918 17323,5223 17704,5223 17704,4918 17842,4918 17842,5653 17704,5653 17704,5327 17323,5327 17323,5653 17185,5653 "/>
  <polygon id="20" class="fil2" points="18049,4918 18186,4918 18186,5478 18568,4918 18716,4918 18716,5653 18579,5653 18579,5096 18197,5653 18049,5653 "/>
  <path id="21" class="fil2" d="M19475 5415l143 17c-22,74 -64,133 -124,174 -61,41 -138,62 -232,62 -118,0 -212,-33 -281,-99 -70,-66 -104,-159 -104,-278 0,-123 35,-219 105,-287 70,-68 161,-102 272,-102 109,0 197,33 265,100 69,67 103,161 103,282 0,7 0,18 0,33l-605 0c6,80 31,142 76,185 45,43 102,64 169,64 50,0 93,-12 129,-36 36,-24 64,-63 84,-115zm-450 -200l452 0c-6,-62 -23,-108 -52,-139 -43,-48 -100,-72 -170,-72 -63,0 -116,19 -159,57 -42,39 -66,90 -71,154z"/>
  <path id="22" class="fil2" d="M20226 4918l316 0c78,0 136,5 174,17 38,12 70,33 97,65 28,32 41,69 41,113 0,35 -8,66 -24,92 -16,26 -40,48 -72,65 38,12 69,33 95,65 25,31 37,69 37,112 -5,70 -32,122 -82,155 -50,34 -122,51 -217,51l-365 0 0 -735zm137 310l146 0c58,0 99,-3 120,-9 22,-5 42,-16 59,-33 17,-17 26,-37 26,-61 0,-39 -16,-66 -46,-81 -30,-16 -81,-23 -154,-23l-151 0 0 207zm0 323l181 0c78,0 131,-9 160,-25 29,-16 44,-45 45,-85 0,-23 -8,-45 -24,-65 -17,-20 -39,-33 -66,-38 -27,-6 -70,-8 -130,-8l-166 0 0 221z"/>
  <path id="23" class="fil2" d="M20987 5285c0,-136 42,-236 126,-302 69,-54 154,-81 255,-81 111,0 202,33 273,99 71,66 106,157 106,274 0,94 -16,168 -47,222 -31,54 -77,96 -137,126 -59,30 -125,45 -195,45 -114,0 -205,-33 -276,-98 -70,-66 -105,-161 -105,-285zm141 0c0,94 23,165 68,211 46,47 103,70 172,70 68,0 125,-23 170,-70 46,-47 68,-119 68,-215 0,-90 -23,-159 -68,-206 -46,-46 -103,-70 -170,-70 -69,0 -126,23 -172,70 -45,46 -68,117 -68,210z"/>
  <path id="24" class="fil2" d="M22382 4918l0 317c44,0 75,-8 93,-23 18,-15 44,-59 78,-133 31,-69 59,-114 85,-133 25,-19 64,-28 119,-28l50 0 0 102 -37 -1c-37,0 -60,5 -70,15 -11,10 -27,41 -49,91 -21,48 -39,81 -57,100 -17,18 -44,35 -80,50 59,14 117,64 173,150l151 228 -151 0 -147 -228c-30,-46 -56,-76 -78,-91 -23,-14 -49,-21 -80,-21l0 340 -141 0 0 -340c-30,0 -57,7 -79,21 -22,14 -48,45 -78,91l-148 228 -151 0 150 -228c57,-86 115,-136 175,-150 -41,-17 -69,-35 -86,-56 -16,-20 -40,-68 -73,-143 -11,-26 -23,-41 -36,-47 -13,-6 -33,-9 -59,-9 -6,0 -20,0 -40,1l0 -103 19 0c53,0 90,2 112,8 22,6 41,18 58,37 17,18 39,57 66,116 33,73 59,117 77,132 17,16 49,24 93,24l0 -317 141 0z"/>
  <path id="25" class="fil2" d="M23045 4918l566 0 0 633 87 0 0 310 -112 0 0 -208 -640 0 0 208 -112 0 0 -310 72 0c96,-120 143,-331 139,-633zm114 103c-10,238 -51,415 -122,530l436 0 0 -530 -314 0z"/>
  <path id="26" class="fil2" d="M24402 5415l143 17c-22,74 -64,133 -124,174 -61,41 -138,62 -232,62 -118,0 -212,-33 -281,-99 -70,-66 -104,-159 -104,-278 0,-123 35,-219 105,-287 70,-68 161,-102 272,-102 109,0 197,33 265,100 69,67 103,161 103,282 0,7 0,18 0,33l-605 0c6,80 31,142 76,185 45,43 102,64 169,64 50,0 93,-12 129,-36 36,-24 64,-63 84,-115zm-450 -200l452 0c-6,-62 -24,-108 -52,-139 -43,-48 -100,-72 -170,-72 -63,0 -116,19 -159,57 -42,39 -66,90 -71,154z"/>
  <polygon id="27" class="fil2" points="24718,4918 24856,4918 24856,5223 25237,5223 25237,4918 25375,4918 25375,5653 25237,5653 25237,5327 24856,5327 24856,5653 24718,5653 "/>
  <polygon id="28" class="fil2" points="25582,4918 25719,4918 25719,5478 26101,4918 26249,4918 26249,5653 26112,5653 26112,5096 25730,5653 25582,5653 "/>
  <path id="29" class="fil2" d="M26457 4918l137 0 0 307 168 0c12,-105 48,-185 108,-240 61,-55 139,-83 235,-83 82,0 146,15 194,45 47,30 86,71 117,124 30,52 46,122 46,211 0,127 -32,223 -96,288 -63,66 -149,98 -258,98 -101,0 -182,-30 -244,-91 -61,-61 -95,-144 -102,-250l-168 0 0 326 -137 0 0 -735zm655 90c-67,0 -119,24 -157,70 -37,47 -56,112 -56,196 0,101 19,175 57,222 37,47 88,70 151,70 63,0 114,-22 154,-65 40,-43 60,-113 60,-210 0,-94 -17,-165 -52,-212 -35,-47 -87,-71 -157,-71z"/>
  <rect class="fil1" x="13736" y="121" width="461" height="3734"/>
 </g>
</svg>
