<?xml version="1.0" encoding="UTF-8"?>
<!DOCTYPE svg PUBLIC "-//W3C//DTD SVG 1.1//EN" "http://www.w3.org/Graphics/SVG/1.1/DTD/svg11.dtd">
<!-- Creator: CorelDRAW X8 -->
<svg xmlns="http://www.w3.org/2000/svg" xml:space="preserve" width="1920px" height="800px" version="1.1" style="shape-rendering:geometricPrecision; text-rendering:geometricPrecision; image-rendering:optimizeQuality; fill-rule:evenodd; clip-rule:evenodd"
viewBox="0 0 192000 80000"
 xmlns:xlink="http://www.w3.org/1999/xlink">
 <defs>
  <style type="text/css">
   <![CDATA[
    .fil0 {fill:black}
    .fil1 {fill:#FCBE0B}
    .fil4 {fill:#FFBE03}
    .fil2 {fill:black;fill-rule:nonzero}
    .fil3 {fill:#FCBE0B;fill-rule:nonzero}
   ]]>
  </style>
 </defs>
 <g id="Слой_x0020_1">
  <metadata id="CorelCorpID_0Corel-Layer"/>
  <path class="fil0" d="M44020 47856l11614 0c849,0 1537,-688 1537,-1537 0,-4050 -3295,-7345 -7344,-7345 -4050,0 -7345,3295 -7345,7345 0,849 689,1537 1538,1537zm5807 -5807c1813,0 3365,1135 3984,2733l-7968 0c618,-1598 2171,-2733 3984,-2733l0 0zm0 0z"/>
  <circle class="fil1" cx="49827" cy="43415" r="21675"/>
  <g id="_993966816">
   <g>
    <path class="fil0" d="M38480 46150l137 0c461,1793 2091,3122 4026,3122 1935,0 3566,-1329 4027,-3122l6314 0c461,1793 2091,3122 4026,3122 1936,0 3566,-1329 4027,-3122l3453 0c572,0 1035,-463 1035,-1035l0 -1826c0,-3762 -2811,-6880 -6442,-7362 -487,-4678 -4452,-8337 -9256,-8337 -4804,0 -8769,3659 -9256,8337 -3632,482 -6443,3600 -6443,7362l0 1826c0,572 464,1035 1035,1035l1247 0 2070 0zm6250 -1035c0,1151 -936,2087 -2087,2087 -1151,0 -2087,-936 -2087,-2087 0,-1150 936,-2087 2087,-2087 1151,0 2087,936 2087,2087zm14368 0c0,1151 -937,2087 -2088,2087 -1150,0 -2087,-936 -2087,-2087 0,-1150 937,-2087 2087,-2087 1151,0 2088,936 2088,2087zm-22900 -1826c0,-2954 2403,-5358 5358,-5358 571,0 1035,-463 1035,-1035 0,-3990 3246,-7236 7236,-7236 3990,0 7236,3246 7236,7236 0,572 463,1035 1035,1035 2954,0 5358,2404 5358,5358l0 791 -2419 0c-461,-1793 -2091,-3122 -4027,-3122 -1935,0 -3565,1329 -4026,3122l-6314 0c-461,-1793 -2092,-3122 -4027,-3122 -1935,0 -3565,1329 -4026,3122l-2419 0 0 -791z"/>
   </g>
   <path class="fil0" d="M49827 59240c-4879,0 -9371,-2463 -12014,-6586 -304,-473 -167,-1105 308,-1407 475,-304 1105,-169 1409,308 2265,3536 6115,5646 10297,5646 4182,0 8032,-2110 10297,-5648 302,-477 932,-614 1409,-308 473,302 612,934 308,1407 -2643,4125 -7135,6588 -12014,6588zm0 0z"/>
  </g>
  <polygon class="fil2" points="80302,44555 83018,44555 83018,39776 88907,39776 88907,37308 83018,37308 83018,34681 89701,34681 89701,32212 80302,32212 "/>
  <path id="1" class="fil2" d="M97494 44749c3315,0 5413,-1834 5413,-5572l0 -6965 -2715 0 0 7071c0,1957 -1005,2962 -2663,2962 -1657,0 -2662,-1040 -2662,-3050l0 -6983 -2716 0 0 7053c0,3632 2028,5484 5343,5484z"/>
  <polygon id="2" class="fil2" points="106152,44555 108832,44555 108832,36708 114809,44555 117119,44555 117119,32212 114439,32212 114439,39812 108655,32212 106152,32212 "/>
  <path id="3" class="fil2" d="M125724 44555l4108 0c3879,0 6559,-2698 6559,-6172 0,-3508 -2680,-6171 -6559,-6171l-4108 0 0 12343zm917 -847l0 -10650 3191 0c3438,0 5607,2398 5607,5325 0,2980 -2169,5325 -5607,5325l-3191 0z"/>
  <path id="4" class="fil2" d="M139988 44555l917 0 0 -5114 4038 0 3932 5114 1164 0 -4073 -5272c2080,-282 3614,-1464 3614,-3527 0,-917 -352,-1745 -934,-2327 -741,-741 -1957,-1217 -3474,-1217l-5184 0 0 12343zm917 -5942l0 -5555 4214 0c2240,0 3544,1041 3544,2698 0,1816 -1534,2857 -3597,2857l-4161 0z"/>
  <polygon id="5" class="fil2" points="153336,44555 154253,44555 154253,32212 153336,32212 "/>
  <polygon id="6" class="fil2" points="162893,44643 163704,44643 169135,32212 168165,32212 163316,43567 158485,32212 157462,32212 "/>
  <polygon id="7" class="fil2" points="172220,44555 181090,44555 181090,43708 173137,43708 173137,38754 180208,38754 180208,37907 173137,37907 173137,33058 181001,33058 181001,32212 172220,32212 "/>
  <path class="fil3" d="M80094 53457c0,-1019 275,-1818 823,-2395 548,-576 1255,-864 2123,-864 568,0 1079,136 1535,406 455,271 803,649 1042,1134 239,484 359,1033 359,1647 0,623 -126,1181 -377,1672 -252,492 -609,864 -1069,1116 -463,253 -961,379 -1495,379 -579,0 -1096,-140 -1552,-419 -455,-279 -802,-660 -1037,-1143 -234,-483 -352,-994 -352,-1533zm842 14c0,740 199,1322 597,1748 398,425 897,638 1498,638 613,0 1115,-215 1511,-644 395,-430 593,-1039 593,-1829 0,-500 -85,-936 -253,-1308 -169,-372 -417,-661 -742,-866 -326,-205 -691,-308 -1096,-308 -575,0 -1070,198 -1486,593 -415,395 -622,1053 -622,1976z"/>
  <polygon id="1" class="fil3" points="121758,56449 121758,50301 126197,50301 126197,51022 122574,51022 122574,52911 125966,52911 125966,53633 122574,53633 122574,55728 126343,55728 126343,56449 "/>
  <path id="2" class="fil3" d="M87057 50301l3993 0 0 721 -3177 0 0 1898 1468 0c542,0 973,52 1294,156 320,103 577,298 770,585 193,287 289,620 289,1001 0,310 -69,601 -208,870 -138,270 -345,491 -619,661 -274,170 -742,256 -1401,256l-2409 0 0 -6148zm816 5453l1627 0c439,0 768,-89 989,-268 219,-179 329,-446 329,-803 0,-255 -63,-466 -189,-637 -126,-170 -300,-283 -524,-339 -224,-56 -607,-83 -1146,-83l-1086 0 0 2130z"/>
  <path id="3" class="fil3" d="M91838 50301l819 0 2014 3780 1750 -3780 801 0 -2302 4783c-288,598 -524,990 -709,1175 -184,185 -448,276 -791,276 -209,0 -465,-48 -770,-146l0 -695c217,126 448,189 691,189 198,0 368,-65 512,-192 144,-128 302,-418 476,-872l-2491 -4518z"/>
  <path id="4" class="fil3" d="M102304 56449l-815 0 0 -2476c-730,271 -1370,407 -1918,407 -428,0 -806,-100 -1132,-301 -328,-199 -547,-453 -657,-761 -110,-308 -166,-710 -166,-1208l0 -1809 816 0 0 1733c0,671 121,1114 366,1325 245,211 540,317 883,317 574,0 1176,-128 1808,-382l0 -2993 815 0 0 6148z"/>
  <polygon id="5" class="fil3" points="103657,56449 103657,50301 108096,50301 108096,51022 104473,51022 104473,52911 107864,52911 107864,53633 104473,53633 104473,55728 108242,55728 108242,56449 "/>
  <polygon id="6" class="fil3" points="109401,56449 109401,50301 110217,50301 110217,52834 113394,52834 113394,50301 114210,50301 114210,56449 113394,56449 113394,53556 110217,53556 110217,56449 "/>
  <polygon id="7" class="fil3" points="115585,50301 116324,50301 116324,55170 119597,50301 120403,50301 120403,56449 119664,56449 119664,51593 116400,56449 115585,56449 "/>
  <path id="8" class="fil3" d="M129820 56449l0 -6148 2307 0c469,0 845,62 1130,186 284,125 505,316 666,575 161,258 242,529 242,812 0,262 -72,509 -214,741 -141,232 -356,420 -644,563 372,108 659,295 858,558 200,262 300,572 300,930 0,289 -61,557 -183,804 -122,248 -272,438 -451,573 -179,133 -403,235 -673,303 -270,69 -601,103 -993,103l-2345 0zm815 -3563l1330 0c361,0 620,-25 776,-72 207,-61 363,-164 468,-308 104,-143 157,-322 157,-538 0,-204 -49,-385 -147,-539 -98,-156 -238,-263 -420,-321 -181,-57 -493,-86 -934,-86l-1230 0 0 1864zm0 2842l1532 0c263,0 448,-10 555,-30 186,-33 343,-89 469,-168 126,-78 229,-193 311,-343 82,-150 122,-323 122,-519 0,-231 -59,-430 -178,-600 -117,-170 -280,-289 -489,-358 -208,-69 -508,-103 -899,-103l-1423 0 0 2121z"/>
  <path id="9" class="fil3" d="M135048 53457c0,-1019 274,-1818 823,-2395 548,-576 1255,-864 2122,-864 568,0 1079,136 1536,406 455,271 802,649 1041,1134 239,484 360,1033 360,1647 0,623 -126,1181 -378,1672 -252,492 -608,864 -1069,1116 -463,253 -961,379 -1494,379 -580,0 -1097,-140 -1553,-419 -455,-279 -802,-660 -1036,-1143 -235,-483 -352,-994 -352,-1533zm841 14c0,740 199,1322 597,1748 398,425 897,638 1498,638 613,0 1115,-215 1512,-644 395,-430 592,-1039 592,-1829 0,-500 -84,-936 -253,-1308 -169,-372 -417,-661 -742,-866 -326,-205 -691,-308 -1096,-308 -575,0 -1070,198 -1485,593 -415,395 -623,1053 -623,1976z"/>
  <path id="10" class="fil3" d="M145505 50301l0 2696c399,0 673,-74 823,-221 149,-148 338,-493 568,-1038 169,-405 308,-690 419,-856 111,-167 268,-306 473,-419 204,-113 429,-171 672,-171 267,0 433,3 497,9l0 704c-26,0 -79,-1 -159,-4 -90,-3 -144,-4 -163,-4 -261,0 -454,63 -578,189 -129,125 -276,395 -441,807 -179,446 -334,750 -465,911 -130,162 -321,295 -570,402 404,112 793,477 1171,1097l1265 2046 -1006 0 -1030 -1666c-274,-443 -504,-755 -690,-937 -186,-182 -448,-273 -786,-273l0 2876 -833 0 0 -2876c-268,0 -504,70 -710,211 -204,142 -443,447 -717,915l-51 83 -1032 1667 -1011 0 1267 -2046c386,-623 779,-988 1176,-1097 -221,-90 -402,-210 -541,-360 -140,-150 -306,-468 -499,-952 -176,-441 -328,-717 -454,-828 -126,-114 -312,-169 -561,-169l-327 8 0 -704c31,-6 187,-9 470,-9 269,0 503,56 700,167 198,110 352,249 465,415 112,167 255,455 431,865 233,553 424,899 570,1039 147,141 422,214 824,219l0 -2696 833 0z"/>
  <path id="11" class="fil3" d="M150274 50301l3743 0 0 5427 550 0 0 2155 -721 0 0 -1434 -4070 0 0 1434 -722 0 0 -2155 473 0c498,-747 747,-2257 747,-4528l0 -899zm2928 721l-2147 0 0 315c0,524 -47,1241 -142,2150 -93,909 -279,1656 -554,2241l2843 0 0 -4706z"/>
  <polygon id="12" class="fil3" points="155547,56449 155547,50301 159987,50301 159987,51022 156363,51022 156363,52911 159755,52911 159755,53633 156363,53633 156363,55728 160133,55728 160133,56449 "/>
  <polygon id="13" class="fil3" points="161292,56449 161292,50301 162108,50301 162108,52834 165285,52834 165285,50301 166101,50301 166101,56449 165285,56449 165285,53556 162108,53556 162108,56449 "/>
  <polygon id="14" class="fil3" points="167476,50301 168214,50301 168214,55170 171487,50301 172293,50301 172293,56449 171555,56449 171555,51593 168290,56449 167476,56449 "/>
  <path id="15" class="fil3" d="M173666 50301l815 0 0 2756 1185 0c59,-870 344,-1565 858,-2082 512,-518 1147,-777 1906,-777 799,0 1461,282 1986,847 526,564 789,1330 789,2297 0,1005 -262,1792 -787,2359 -524,568 -1195,851 -2014,851 -743,0 -1361,-246 -1856,-737 -495,-491 -787,-1169 -873,-2036l-1194 0 0 2670 -815 0 0 -6148zm2808 3103c0,777 178,1381 535,1809 356,429 824,644 1404,644 592,0 1066,-215 1419,-646 354,-430 531,-1049 531,-1857 0,-766 -174,-1368 -522,-1809 -348,-440 -819,-660 -1412,-660 -604,0 -1081,223 -1432,668 -349,447 -523,1064 -523,1851z"/>
  <rect class="fil4" x="120808" y="30149" width="2061" height="14973"/>
 </g>
</svg>
