<?xml version="1.0" encoding="UTF-8"?>
<!DOCTYPE svg PUBLIC "-//W3C//DTD SVG 1.1//EN" "http://www.w3.org/Graphics/SVG/1.1/DTD/svg11.dtd">
<!-- Creator: CorelDRAW X8 -->
<svg xmlns="http://www.w3.org/2000/svg" xml:space="preserve" width="1276px" height="283px" version="1.1" style="shape-rendering:geometricPrecision; text-rendering:geometricPrecision; image-rendering:optimizeQuality; fill-rule:evenodd; clip-rule:evenodd"
viewBox="0 0 127600 28356"
 xmlns:xlink="http://www.w3.org/1999/xlink">
 <defs>
  <style type="text/css">
   <![CDATA[
    .fil0 {fill:black}
    .fil3 {fill:#FFBE03}
    .fil1 {fill:white}
    .fil2 {fill:white;fill-rule:nonzero}
   ]]>
  </style>
 </defs>
 <g id="Слой_x0020_1">
  <metadata id="CorelCorpID_0Corel-Layer"/>
  <g id="_1001987744">
   <path class="fil0" d="M8856 11428l4639 0c339,0 614,-275 614,-614 0,-1618 -1316,-2934 -2934,-2934 -1617,0 -2933,1316 -2933,2934 0,339 274,614 614,614zm2319 -2320c724,0 1345,454 1592,1092l-3183 0c247,-638 867,-1092 1591,-1092l0 0zm0 0z"/>
   <circle class="fil1" cx="11175" cy="9654" r="8658"/>
   <g>
    <g>
     <path class="fil0" d="M6643 10746l54 0c185,717 836,1247 1609,1247 773,0 1424,-530 1608,-1247l2522 0c185,717 836,1247 1609,1247 773,0 1424,-530 1608,-1247l1380 0c228,0 413,-185 413,-413l0 -730c0,-1502 -1123,-2748 -2573,-2940 -195,-1869 -1779,-3330 -3698,-3330 -1919,0 -3503,1461 -3697,3330 -1451,192 -2573,1438 -2573,2940l0 730c0,228 185,413 413,413l498 0 827 0zm2497 -413c0,460 -374,834 -834,834 -460,0 -834,-374 -834,-834 0,-460 374,-834 834,-834 460,0 834,374 834,834zm5738 0c0,460 -374,834 -833,834 -460,0 -834,-374 -834,-834 0,-460 374,-834 834,-834 459,0 833,374 833,834zm-9147 -730c0,-1180 960,-2140 2140,-2140 229,0 414,-185 414,-413 0,-1594 1296,-2891 2890,-2891 1594,0 2891,1297 2891,2891 0,228 185,413 413,413 1180,0 2140,960 2140,2140l0 317 -966 0c-184,-717 -835,-1248 -1608,-1248 -773,0 -1424,531 -1609,1248l-2522 0c-184,-717 -835,-1248 -1608,-1248 -773,0 -1424,531 -1609,1248l-966 0 0 -317z"/>
    </g>
    <path class="fil0" d="M11175 15975c-1949,0 -3743,-984 -4798,-2631 -122,-189 -67,-441 122,-562 190,-121 442,-67 563,123 905,1413 2443,2256 4113,2256 1671,0 3209,-843 4114,-2257 120,-190 372,-245 562,-123 189,121 245,374 123,562 -1055,1648 -2850,2632 -4799,2632zm0 0z"/>
   </g>
   <polygon class="fil2" points="23207,15730 25923,15730 25923,10950 31814,10950 31814,8481 25923,8481 25923,5853 32608,5853 32608,3383 23207,3383 "/>
   <path id="1" class="fil2" d="M40404 15924c3316,0 5415,-1834 5415,-5574l0 -6967 -2716 0 0 7073c0,1958 -1006,2963 -2664,2963 -1658,0 -2663,-1040 -2663,-3051l0 -6985 -2716 0 0 7056c0,3633 2028,5485 5344,5485z"/>
   <polygon id="2" class="fil2" points="49064,15730 51745,15730 51745,7881 57725,15730 60035,15730 60035,3383 57354,3383 57354,10985 51569,3383 49064,3383 "/>
   <path id="3" class="fil2" d="M68643 15730l4109 0c3881,0 6562,-2699 6562,-6173 0,-3510 -2681,-6174 -6562,-6174l-4109 0 0 12347zm917 -847l0 -10653 3192 0c3440,0 5609,2399 5609,5327 0,2981 -2169,5326 -5609,5326l-3192 0z"/>
   <path id="4" class="fil2" d="M82912 15730l917 0 0 -5115 4039 0 3933 5115 1165 0 -4075 -5274c2081,-282 3616,-1464 3616,-3527 0,-918 -353,-1747 -935,-2329 -741,-740 -1958,-1217 -3475,-1217l-5185 0 0 12347zm917 -5944l0 -5556 4216 0c2240,0 3545,1041 3545,2699 0,1816 -1535,2857 -3598,2857l-4163 0z"/>
   <polygon id="5" class="fil2" points="96264,15730 97181,15730 97181,3383 96264,3383 "/>
   <polygon id="6" class="fil2" points="105824,15818 106635,15818 112068,3383 111097,3383 106247,14742 101414,3383 100391,3383 "/>
   <polygon id="7" class="fil2" points="115154,15730 124026,15730 124026,14883 116071,14883 116071,9927 123144,9927 123144,9081 116071,9081 116071,4230 123938,4230 123938,3383 115154,3383 "/>
   <polygon class="fil2" points="3347,21498 3948,21498 3948,25087 6611,21498 7267,21498 7267,26031 6666,26031 6666,22451 4010,26031 3347,26031 "/>
   <polygon id="1" class="fil2" points="8279,22745 8894,22745 8894,24113 10599,24113 10599,22745 11213,22745 11213,26031 10599,26031 10599,24575 8894,24575 8894,26031 8279,26031 "/>
   <path id="2" class="fil2" d="M12619 22745l2529 0 0 2830 391 0 0 1386 -503 0 0 -930 -2857 0 0 930 -503 0 0 -1386 321 0c433,-533 641,-1476 622,-2830zm510 462c-45,1067 -227,1856 -545,2368l1949 0 0 -2368 -1404 0z"/>
   <polygon id="3" class="fil2" points="16214,22745 16829,22745 16829,25251 18537,22745 19197,22745 19197,26031 18582,26031 18582,23541 16876,26031 16214,26031 "/>
   <path id="4" class="fil2" d="M20117 22745l1415 0c347,0 606,27 776,79 168,53 314,149 435,290 122,141 183,309 183,505 0,157 -36,294 -107,410 -72,117 -180,215 -324,294 170,51 311,147 424,289 112,140 168,308 168,501 -23,311 -146,542 -368,692 -223,151 -547,226 -970,226l-1632 0 0 -3286zm615 1387l652 0c260,0 439,-13 536,-37 98,-26 185,-75 262,-151 77,-75 115,-166 115,-271 0,-174 -67,-295 -201,-363 -135,-69 -366,-103 -692,-103l-672 0 0 925zm0 1443l807 0c347,0 586,-37 715,-110 129,-74 197,-199 204,-380 0,-104 -37,-202 -112,-292 -76,-90 -174,-147 -293,-170 -120,-24 -314,-36 -579,-36l-742 0 0 988z"/>
   <polygon id="5" class="fil2" points="23830,22745 24444,22745 24444,25251 26153,22745 26813,22745 26813,26031 26198,26031 26198,23541 24492,26031 23830,26031 "/>
   <path id="6" class="fil2" d="M28215 22745l2529 0 0 2830 392 0 0 1386 -503 0 0 -930 -2858 0 0 930 -503 0 0 -1386 321 0c433,-533 641,-1476 622,-2830zm510 462c-45,1067 -227,1856 -545,2368l1949 0 0 -2368 -1404 0z"/>
   <path id="7" class="fil2" d="M31782 27293l-70 -515c135,33 252,50 352,50 137,0 247,-21 328,-62 83,-41 150,-99 203,-173 38,-56 101,-194 187,-416 12,-30 29,-76 55,-136l-1376 -3296 656 0 757 1897c99,240 187,493 265,759 71,-250 154,-497 252,-740l773 -1916 614 0 -1370 3342c-148,360 -264,607 -346,743 -110,183 -236,317 -376,402 -143,86 -311,128 -507,128 -119,0 -252,-22 -397,-67z"/>
   <path id="8" class="fil2" d="M37594 25619c-228,176 -448,300 -659,372 -211,73 -437,109 -679,109 -398,0 -705,-87 -919,-264 -214,-175 -321,-399 -321,-673 0,-160 40,-307 121,-440 81,-133 187,-238 318,-318 131,-80 278,-142 442,-183 121,-28 304,-56 548,-83 496,-53 862,-117 1096,-191 3,-76 4,-124 4,-145 0,-225 -58,-385 -175,-477 -157,-126 -391,-188 -701,-188 -290,0 -504,46 -641,138 -139,92 -240,254 -307,488l-600 -76c54,-233 144,-422 270,-565 125,-143 307,-253 545,-331 236,-77 512,-116 824,-116 310,0 563,32 757,99 193,66 337,149 427,249 91,100 155,227 193,380 19,95 30,265 30,511l0 739c0,516 13,842 38,980 25,138 76,270 150,397l-642 0c-62,-118 -102,-255 -119,-412zm-49 -1234c-224,82 -559,152 -1006,209 -254,32 -433,69 -538,110 -105,42 -185,102 -242,180 -57,79 -87,166 -87,263 0,147 62,271 187,369 124,98 306,147 545,147 236,0 447,-46 632,-140 184,-93 320,-220 407,-382 66,-125 98,-310 98,-554l4 -202z"/>
   <path id="9" class="fil2" d="M39412 22745l2857 0 0 3282 -614 0 0 -2820 -1628 0 0 1635c0,380 -14,631 -41,754 -28,121 -103,227 -225,317 -123,91 -300,137 -532,137 -143,0 -309,-9 -495,-25l0 -463 269 0c127,0 218,-11 272,-36 55,-23 91,-61 110,-113 17,-51 27,-219 27,-503l0 -2165z"/>
   <path id="10" class="fil2" d="M43174 22745l615 0 0 1285 778 0c508,0 898,89 1173,267 273,178 411,424 411,738 0,274 -115,508 -344,703 -228,195 -594,293 -1097,293l-1536 0 0 -3286zm615 2830l647 0c391,0 669,-43 835,-130 167,-87 251,-222 251,-405 0,-143 -62,-269 -185,-381 -124,-111 -396,-167 -819,-167l-729 0 0 1083z"/>
   <polygon id="11" class="fil2" points="46828,22745 47443,22745 47443,24113 49148,24113 49148,22745 49763,22745 49763,26031 49148,26031 49148,24575 47443,24575 47443,26031 46828,26031 "/>
   <path id="12" class="fil2" d="M50456 24388c0,-607 186,-1056 560,-1348 311,-243 692,-364 1140,-364 497,0 905,147 1221,443 316,294 474,702 474,1223 0,422 -69,753 -209,994 -140,242 -344,430 -612,564 -266,134 -558,200 -874,200 -508,0 -918,-147 -1231,-441 -313,-294 -469,-718 -469,-1271zm629 1c0,420 101,734 304,942 203,209 458,313 767,313 305,0 559,-104 763,-314 202,-210 304,-530 304,-959 0,-405 -103,-712 -307,-920 -203,-209 -457,-313 -760,-313 -309,0 -564,103 -767,311 -203,208 -304,521 -304,940z"/>
   <path id="13" class="fil2" d="M57046 24967l635 76c-98,334 -284,595 -554,780 -270,184 -615,277 -1035,277 -529,0 -948,-148 -1258,-443 -309,-294 -464,-709 -464,-1242 0,-550 156,-979 469,-1283 313,-304 720,-456 1219,-456 483,0 878,148 1184,447 307,299 460,718 460,1260 0,32 -1,82 -3,147l-2701 0c24,360 136,636 338,827 202,191 454,287 756,287 225,0 417,-53 575,-161 160,-108 286,-280 379,-516zm-2013 -892l2020 0c-27,-277 -105,-484 -232,-622 -195,-214 -448,-322 -759,-322 -282,0 -519,86 -711,257 -191,171 -297,400 -318,687z"/>
   <path id="14" class="fil2" d="M60169 24388c0,-607 186,-1056 560,-1348 311,-243 692,-364 1140,-364 497,0 905,147 1222,443 315,294 474,702 474,1223 0,422 -70,753 -210,994 -140,242 -344,430 -611,564 -267,134 -559,200 -875,200 -508,0 -918,-147 -1231,-441 -313,-294 -469,-718 -469,-1271zm629 1c0,420 101,734 304,942 203,209 458,313 767,313 305,0 559,-104 763,-314 202,-210 304,-530 304,-959 0,-405 -103,-712 -307,-920 -203,-209 -457,-313 -760,-313 -309,0 -564,103 -767,311 -203,208 -304,521 -304,940z"/>
   <path id="15" class="fil2" d="M66926 21391l545 6c-24,221 -79,375 -161,461 -83,87 -189,141 -319,167 -131,24 -387,37 -768,37 -505,0 -850,44 -1034,133 -183,88 -316,230 -396,424 -80,195 -124,445 -134,752 155,-209 336,-365 543,-470 206,-104 440,-156 699,-156 475,0 868,148 1180,443 311,296 467,696 467,1201 0,383 -78,697 -235,942 -157,245 -343,435 -559,569 -214,134 -508,200 -878,200 -431,0 -765,-88 -1004,-267 -238,-178 -421,-406 -549,-683 -127,-278 -191,-762 -191,-1451 0,-866 162,-1450 484,-1750 323,-301 820,-451 1491,-451 418,0 654,-6 711,-19 56,-12 92,-42 108,-88zm-20 2982c0,-341 -90,-620 -268,-839 -179,-218 -430,-327 -755,-327 -339,0 -600,115 -784,346 -184,230 -276,537 -276,922 0,380 102,671 305,873 203,201 455,303 752,303 305,0 552,-117 741,-351 190,-233 285,-542 285,-927z"/>
   <path id="16" class="fil2" d="M68106 27293l-70 -515c135,33 252,50 352,50 137,0 247,-21 328,-62 83,-41 150,-99 203,-173 38,-56 101,-194 187,-416 12,-30 30,-76 55,-136l-1376 -3296 656 0 757 1897c99,240 187,493 265,759 71,-250 155,-497 252,-740l774 -1916 613 0 -1370 3342c-148,360 -263,607 -346,743 -110,183 -235,317 -376,402 -142,86 -311,128 -507,128 -119,0 -251,-22 -397,-67z"/>
   <path id="17" class="fil2" d="M71397 22745l615 0 0 621c0,268 17,462 53,582 35,120 120,226 255,315 134,90 303,134 507,134 233,0 533,-55 904,-166l0 -1486 614 0 0 3286 -614 0 0 -1327c-379,108 -733,162 -1061,162 -276,0 -520,-63 -730,-190 -211,-127 -354,-282 -430,-465 -76,-184 -113,-385 -113,-606l0 -860z"/>
   <path id="18" class="fil2" d="M77741 24967l636 76c-99,334 -284,595 -554,780 -271,184 -615,277 -1036,277 -528,0 -948,-148 -1257,-443 -310,-294 -465,-709 -465,-1242 0,-550 156,-979 469,-1283 314,-304 720,-456 1220,-456 483,0 878,148 1184,447 306,299 460,718 460,1260 0,32 -1,82 -4,147l-2700 0c23,360 135,636 338,827 201,191 454,287 755,287 225,0 417,-53 576,-161 159,-108 285,-280 378,-516zm-2012 -892l2019 0c-27,-277 -105,-484 -232,-622 -194,-214 -448,-322 -759,-322 -282,0 -518,86 -710,257 -191,171 -297,400 -318,687z"/>
   <polygon id="19" class="fil2" points="79154,22745 79769,22745 79769,24113 81473,24113 81473,22745 82088,22745 82088,26031 81473,26031 81473,24575 79769,24575 79769,26031 79154,26031 "/>
   <polygon id="20" class="fil2" points="83012,22745 83627,22745 83627,25251 85335,22745 85995,22745 85995,26031 85380,26031 85380,23541 83674,26031 83012,26031 "/>
   <path id="21" class="fil2" d="M89388 24967l636 76c-99,334 -284,595 -554,780 -270,184 -615,277 -1035,277 -529,0 -948,-148 -1258,-443 -310,-294 -465,-709 -465,-1242 0,-550 156,-979 470,-1283 313,-304 719,-456 1219,-456 483,0 878,148 1184,447 307,299 460,718 460,1260 0,32 -1,82 -3,147l-2701 0c24,360 135,636 338,827 201,191 454,287 756,287 224,0 417,-53 575,-161 160,-108 285,-280 378,-516zm-2012 -892l2019 0c-26,-277 -104,-484 -231,-622 -195,-214 -449,-322 -760,-322 -281,0 -518,86 -710,257 -191,171 -297,400 -318,687z"/>
   <path id="22" class="fil2" d="M92742 22745l1415 0c347,0 606,27 776,79 168,53 314,149 435,290 122,141 183,309 183,505 0,157 -36,294 -107,410 -72,117 -179,215 -324,294 170,51 311,147 424,289 112,140 168,308 168,501 -22,311 -146,542 -368,692 -223,151 -546,226 -970,226l-1632 0 0 -3286zm615 1387l652 0c260,0 439,-13 536,-37 98,-26 185,-75 262,-151 77,-75 115,-166 115,-271 0,-174 -67,-295 -201,-363 -135,-69 -366,-103 -692,-103l-672 0 0 925zm0 1443l807 0c347,0 586,-37 715,-110 129,-74 197,-199 204,-380 0,-104 -37,-202 -112,-292 -76,-90 -173,-147 -293,-170 -120,-24 -314,-36 -579,-36l-742 0 0 988z"/>
   <path id="23" class="fil2" d="M96146 24388c0,-607 186,-1056 560,-1348 311,-243 692,-364 1140,-364 497,0 905,147 1222,443 315,294 474,702 474,1223 0,422 -70,753 -210,994 -140,242 -343,430 -611,564 -267,134 -559,200 -875,200 -508,0 -917,-147 -1231,-441 -313,-294 -469,-718 -469,-1271zm629 1c0,420 101,734 304,942 204,209 459,313 767,313 305,0 559,-104 763,-314 203,-210 304,-530 304,-959 0,-405 -103,-712 -306,-920 -204,-209 -458,-313 -761,-313 -308,0 -563,103 -767,311 -203,208 -304,521 -304,940z"/>
   <path id="24" class="fil2" d="M102378 22745l0 1418c198,0 338,-34 418,-100 81,-68 196,-265 345,-594 140,-312 267,-511 381,-597 112,-84 289,-127 532,-127l225 0 0 459 -167 -3c-164,0 -267,22 -313,65 -48,46 -121,181 -219,406 -91,215 -174,363 -251,446 -77,82 -198,157 -361,226 265,64 524,287 776,668l675 1019 -676 0 -657 -1017c-133,-207 -251,-342 -350,-407 -100,-64 -219,-96 -358,-96l0 1520 -628 0 0 -1520c-137,0 -254,32 -353,95 -100,64 -217,200 -350,409l-662 1016 -676 0 672 -1019c255,-381 516,-604 782,-668 -182,-76 -310,-160 -382,-249 -74,-90 -182,-304 -327,-643 -51,-114 -104,-183 -161,-209 -60,-26 -147,-39 -263,-39 -29,0 -90,1 -181,3l0 -462 85 0c238,0 404,13 501,39 97,26 183,81 260,164 75,83 174,256 295,521 148,324 262,520 342,590 79,69 218,104 418,104l0 -1418 628 0z"/>
   <path id="25" class="fil2" d="M105341 22745l2529 0 0 2830 391 0 0 1386 -503 0 0 -930 -2857 0 0 930 -503 0 0 -1386 321 0c433,-533 641,-1476 622,-2830zm510 462c-45,1067 -227,1856 -545,2368l1949 0 0 -2368 -1404 0z"/>
   <path id="26" class="fil2" d="M111409 24967l636 76c-99,334 -284,595 -554,780 -271,184 -615,277 -1036,277 -528,0 -948,-148 -1257,-443 -310,-294 -465,-709 -465,-1242 0,-550 156,-979 469,-1283 314,-304 720,-456 1220,-456 483,0 878,148 1184,447 306,299 460,718 460,1260 0,32 -1,82 -4,147l-2700 0c23,360 135,636 338,827 201,191 454,287 755,287 225,0 417,-53 576,-161 159,-108 285,-280 378,-516zm-2012 -892l2019 0c-27,-277 -105,-484 -232,-622 -194,-214 -448,-322 -759,-322 -282,0 -518,86 -710,257 -191,171 -297,400 -318,687z"/>
   <polygon id="27" class="fil2" points="112822,22745 113437,22745 113437,24113 115141,24113 115141,22745 115756,22745 115756,26031 115141,26031 115141,24575 113437,24575 113437,26031 112822,26031 "/>
   <polygon id="28" class="fil2" points="116680,22745 117295,22745 117295,25251 119003,22745 119663,22745 119663,26031 119048,26031 119048,23541 117342,26031 116680,26031 "/>
   <path id="29" class="fil2" d="M120590 22745l615 0 0 1374 748 0c54,-469 216,-826 485,-1073 270,-247 620,-370 1049,-370 366,0 655,66 866,200 211,134 386,318 524,553 137,234 206,550 206,946 0,566 -142,995 -427,1287 -284,293 -669,438 -1156,438 -452,0 -814,-136 -1088,-407 -272,-272 -426,-645 -459,-1118l-748 0 0 1456 -615 0 0 -3286zm2931 405c-300,0 -534,105 -702,314 -168,208 -252,500 -252,876 0,451 84,780 253,990 169,210 395,314 677,314 280,0 510,-97 689,-291 178,-194 268,-507 268,-939 0,-421 -78,-737 -233,-947 -155,-211 -388,-317 -700,-317z"/>
   <rect class="fil3" x="63726" y="1312" width="2061" height="16683"/>
  </g>
 </g>
</svg>
