<?xml version="1.0" encoding="UTF-8"?>
<!DOCTYPE svg PUBLIC "-//W3C//DTD SVG 1.1//EN" "http://www.w3.org/Graphics/SVG/1.1/DTD/svg11.dtd">
<!-- Creator: CorelDRAW X8 -->
<svg xmlns="http://www.w3.org/2000/svg" xml:space="preserve" width="216px" height="62px" version="1.1" style="shape-rendering:geometricPrecision; text-rendering:geometricPrecision; image-rendering:optimizeQuality; fill-rule:evenodd; clip-rule:evenodd"
viewBox="0 0 21600 6200"
 xmlns:xlink="http://www.w3.org/1999/xlink">
 <defs>
  <style type="text/css">
   <![CDATA[
    .fil0 {fill:black}
    .fil1 {fill:#FCBE0B}
    .fil4 {fill:#FFBE03}
    .fil2 {fill:black;fill-rule:nonzero}
    .fil3 {fill:#FCBE0B;fill-rule:nonzero}
   ]]>
  </style>
 </defs>
 <g id="Слой_x0020_1">
  <metadata id="CorelCorpID_0Corel-Layer"/>
  <path class="fil0" d="M2406 3715l1608 0c117,0 212,-96 212,-213 0,-561 -456,-1017 -1016,-1017 -561,0 -1017,456 -1017,1017 0,117 95,213 213,213zm804 -804c251,0 466,157 551,378l-1103 0c86,-221 301,-378 552,-378l0 0zm0 0z"/>
  <circle class="fil1" cx="3210" cy="3100" r="3000"/>
  <g id="_1000312176">
   <g>
    <path class="fil0" d="M1639 3479l19 0c64,248 290,432 558,432 267,0 493,-184 557,-432l874 0c64,248 289,432 557,432 268,0 494,-184 557,-432l478 0c79,0 144,-65 144,-144l0 -253c0,-520 -389,-952 -892,-1018 -67,-648 -616,-1154 -1281,-1154 -665,0 -1214,506 -1281,1154 -503,66 -892,498 -892,1018l0 253c0,79 64,144 143,144l173 0 286 0zm865 -144c0,160 -129,289 -289,289 -159,0 -288,-129 -288,-289 0,-159 129,-289 288,-289 160,0 289,130 289,289zm1989 0c0,160 -130,289 -289,289 -159,0 -289,-129 -289,-289 0,-159 130,-289 289,-289 159,0 289,130 289,289zm-3170 -253c0,-408 333,-741 742,-741 79,0 143,-64 143,-143 0,-553 450,-1002 1002,-1002 552,0 1001,449 1001,1002 0,79 64,143 144,143 408,0 741,333 741,741l0 110 -335 0c-63,-248 -289,-432 -557,-432 -268,0 -493,184 -557,432l-874 0c-64,-248 -290,-432 -558,-432 -267,0 -493,184 -557,432l-335 0 0 -110z"/>
   </g>
   <path class="fil0" d="M3210 5290c-676,0 -1297,-341 -1663,-911 -42,-66 -23,-153 43,-195 65,-42 152,-23 195,43 313,489 846,781 1425,781 579,0 1111,-292 1425,-782 42,-66 129,-85 195,-42 65,41 85,129 43,195 -366,570 -988,911 -1663,911zm0 0z"/>
  </g>
  <polygon class="fil2" points="7428,3258 7804,3258 7804,2596 8619,2596 8619,2255 7804,2255 7804,1891 8728,1891 8728,1550 7428,1550 "/>
  <path id="1" class="fil2" d="M9807 3285c459,0 749,-254 749,-771l0 -964 -376 0 0 978c0,271 -139,410 -368,410 -229,0 -369,-144 -369,-422l0 -966 -375 0 0 976c0,502 280,759 739,759z"/>
  <polygon id="2" class="fil2" points="11005,3258 11376,3258 11376,2172 12203,3258 12523,3258 12523,1550 12152,1550 12152,2601 11352,1550 11005,1550 "/>
  <path id="3" class="fil2" d="M13702 3258l593 0c536,0 907,-374 907,-854 0,-486 -371,-854 -907,-854l-593 0 0 1708zm192 -178l0 -1352 401 0c431,0 707,297 707,676 0,383 -276,676 -707,676l-401 0z"/>
  <path id="4" class="fil2" d="M15676 3258l192 0 0 -664 488 0 496 664 236 0 -524 -698c268,-49 464,-215 464,-498 0,-139 -49,-259 -132,-342 -108,-107 -276,-170 -486,-170l-734 0 0 1708zm192 -837l0 -693 528 0c275,0 436,127 436,336 0,225 -183,357 -439,357l-525 0z"/>
  <polygon id="5" class="fil2" points="17523,3258 17716,3258 17716,1550 17523,1550 "/>
  <polygon id="6" class="fil2" points="18870,3270 19041,3270 19775,1550 19568,1550 18958,3021 18350,1550 18135,1550 "/>
  <polygon id="7" class="fil2" points="20178,3258 21425,3258 21425,3082 20371,3082 20371,2484 21303,2484 21303,2308 20371,2308 20371,1725 21413,1725 21413,1550 20178,1550 "/>
  <path class="fil3" d="M7385 4488c0,-102 18,-186 54,-252 36,-66 83,-116 141,-148 58,-33 129,-49 211,-49 121,0 218,39 294,116 75,77 113,186 113,328 0,144 -40,256 -120,337 -70,71 -165,107 -286,107 -121,0 -217,-35 -287,-106 -80,-81 -120,-192 -120,-333zm174 -5c0,98 23,172 67,221 45,50 101,74 166,74 67,0 122,-24 166,-73 44,-49 66,-124 66,-226 0,-99 -21,-172 -64,-220 -43,-47 -98,-71 -168,-71 -68,0 -124,24 -168,72 -43,48 -65,122 -65,223z"/>
  <polygon id="1" class="fil3" points="13198,4913 13198,4053 13820,4053 13820,4199 13367,4199 13367,4388 13789,4388 13789,4533 13367,4533 13367,4768 13836,4768 13836,4913 "/>
  <path id="2" class="fil3" d="M8336 4913l0 -860 627 0 0 146 -459 0 0 197 241 0c91,0 162,23 214,71 51,47 77,110 77,188 0,68 -22,128 -66,180 -44,52 -119,78 -225,78l-409 0zm168 -372l0 227 179 0c47,0 80,-3 101,-8 21,-6 39,-18 54,-37 16,-19 24,-41 24,-67 0,-77 -57,-115 -172,-115l-186 0z"/>
  <path id="3" class="fil3" d="M9398 4672l-309 -619 190 0 195 447 169 -447 175 0 -281 654c-35,79 -69,136 -102,168 -33,32 -72,48 -118,48 -44,0 -84,-3 -118,-10l0 -129c28,2 49,3 64,3 41,0 69,-7 86,-22 17,-14 33,-45 49,-93z"/>
  <path id="4" class="fil3" d="M9889 4361l0 -308 169 0 0 229c0,47 2,83 7,106 5,23 19,43 41,59 23,16 58,24 106,24 72,0 129,-15 172,-47l0 -371 168 0 0 860 -168 0 0 -346c-67,30 -133,46 -200,46 -93,0 -166,-22 -217,-66 -52,-44 -78,-106 -78,-186z"/>
  <polygon id="5" class="fil3" points="10727,4913 10727,4053 11349,4053 11349,4199 10896,4199 10896,4388 11318,4388 11318,4533 10896,4533 10896,4768 11365,4768 11365,4913 "/>
  <polygon id="6" class="fil3" points="11509,4913 11509,4053 11678,4053 11678,4392 12011,4392 12011,4053 12179,4053 12179,4913 12011,4913 12011,4537 11678,4537 11678,4913 "/>
  <polygon id="7" class="fil3" points="12355,4913 12355,4053 12517,4053 12517,4626 12854,4053 13025,4053 13025,4913 12864,4913 12864,4353 12527,4913 "/>
  <path id="8" class="fil3" d="M14306 4053l336 0c92,0 157,8 194,22 38,14 69,38 95,74 25,36 38,76 38,121 0,41 -11,79 -32,112 -22,34 -51,58 -86,74 50,15 88,41 116,77 28,36 42,79 42,131 0,62 -18,115 -54,158 -35,43 -78,70 -127,80 -34,7 -113,11 -237,11l-285 0 0 -860zm168 143l0 200 113 0c67,0 109,-1 125,-3 29,-4 52,-15 68,-31 17,-17 25,-39 25,-68 0,-26 -7,-46 -20,-62 -14,-16 -30,-26 -49,-30 -19,-4 -73,-6 -163,-6l-99 0zm0 342l0 230 158 0c69,0 114,-3 133,-10 20,-6 36,-17 50,-35 13,-18 20,-40 20,-68 0,-28 -7,-51 -22,-69 -14,-18 -33,-31 -57,-38 -23,-6 -71,-10 -144,-10l-138 0z"/>
  <path id="9" class="fil3" d="M15118 4488c0,-102 18,-186 54,-252 36,-66 83,-116 141,-148 58,-33 129,-49 211,-49 120,0 218,39 294,116 75,77 113,186 113,328 0,144 -40,256 -120,337 -70,71 -166,107 -286,107 -121,0 -217,-35 -287,-106 -81,-81 -120,-192 -120,-333zm174 -5c0,98 22,172 67,221 45,50 100,74 166,74 67,0 122,-24 166,-73 44,-49 66,-124 66,-226 0,-99 -22,-172 -64,-220 -43,-47 -99,-71 -168,-71 -69,0 -125,24 -168,72 -43,48 -65,122 -65,223z"/>
  <path id="10" class="fil3" d="M16427 4053l162 0 0 366c31,-2 53,-14 67,-34 15,-20 36,-68 65,-146 28,-77 60,-128 94,-153 35,-25 102,-38 201,-38l0 128 -24 0c-48,0 -80,9 -97,28 -17,18 -35,57 -55,115 -19,58 -37,94 -51,109 -14,16 -33,30 -54,42 32,11 60,30 85,56 24,27 55,78 90,152l115 235 -199 0 -102 -222c-23,-50 -44,-89 -63,-116 -19,-27 -44,-40 -72,-38l0 376 -162 0 0 -376c-25,-1 -47,10 -65,32 -19,21 -42,62 -68,122l-104 222 -199 0 115 -235c33,-68 62,-117 85,-145 23,-30 53,-50 90,-63 -28,-17 -48,-34 -61,-51 -12,-17 -28,-53 -47,-109 -20,-56 -39,-93 -57,-111 -18,-18 -57,-26 -116,-23l0 -128c99,-1 166,11 202,38 35,27 67,78 95,155 28,76 49,124 63,144 15,21 37,32 67,34l0 -366z"/>
  <path id="11" class="fil3" d="M17770 4768l73 0 0 332 -139 0 0 -187 -530 0 0 187 -139 0 0 -332 70 0c27,-61 49,-133 63,-218 16,-86 23,-213 23,-382l0 -115 579 0 0 715zm-169 -569l-250 0c0,253 -23,443 -69,569l319 0 0 -569z"/>
  <polygon id="12" class="fil3" points="17959,4913 17959,4053 18580,4053 18580,4199 18127,4199 18127,4388 18549,4388 18549,4533 18127,4533 18127,4768 18596,4768 18596,4913 "/>
  <polygon id="13" class="fil3" points="18740,4913 18740,4053 18909,4053 18909,4392 19242,4392 19242,4053 19411,4053 19411,4913 19242,4913 19242,4537 18909,4537 18909,4913 "/>
  <polygon id="14" class="fil3" points="19586,4913 19586,4053 19748,4053 19748,4626 20086,4053 20257,4053 20257,4913 20095,4913 20095,4353 19758,4913 "/>
  <path id="15" class="fil3" d="M20598 4556l0 357 -168 0 0 -860 168 0 0 358 137 0c13,-120 53,-212 119,-276 67,-64 155,-96 265,-96 118,0 211,39 279,118 67,78 101,186 101,326 0,139 -34,248 -101,326 -67,79 -159,118 -275,118 -72,0 -132,-10 -181,-32 -50,-21 -94,-62 -135,-124 -41,-63 -65,-134 -72,-215l-137 0zm513 -369c-137,0 -205,102 -205,306 0,93 18,164 55,216 38,51 89,77 155,77 139,0 208,-104 208,-311 0,-92 -18,-163 -56,-213 -38,-50 -90,-75 -157,-75z"/>
  <rect class="fil4" x="13034" y="1264" width="285" height="2072"/>
 </g>
</svg>
