<?xml version="1.0" encoding="UTF-8"?>
<!DOCTYPE svg PUBLIC "-//W3C//DTD SVG 1.1//EN" "http://www.w3.org/Graphics/SVG/1.1/DTD/svg11.dtd">
<!-- Creator: CorelDRAW X8 -->
<svg xmlns="http://www.w3.org/2000/svg" xml:space="preserve" width="275px" height="60px" version="1.1" style="shape-rendering:geometricPrecision; text-rendering:geometricPrecision; image-rendering:optimizeQuality; fill-rule:evenodd; clip-rule:evenodd"
viewBox="0 0 27500 6000"
 xmlns:xlink="http://www.w3.org/1999/xlink">
 <defs>
  <style type="text/css">
   <![CDATA[
    .fil0 {fill:black}
    .fil1 {fill:#FCBE0B}
    .fil3 {fill:#FFBE03}
    .fil2 {fill:black;fill-rule:nonzero}
   ]]>
  </style>
 </defs>
 <g id="Слой_x0020_1">
  <metadata id="CorelCorpID_0Corel-Layer"/>
  <g id="_1103842480">
   <path class="fil0" d="M1481 2388l1033 0c76,0 137,-61 137,-137 0,-360 -293,-653 -653,-653 -360,0 -653,293 -653,653 0,76 61,137 136,137zm517 -517c161,0 299,101 354,243l-708 0c54,-142 193,-243 354,-243l0 0zm0 0z"/>
   <circle class="fil1" cx="1998" cy="1993" r="1927"/>
   <g>
    <g>
     <path class="fil0" d="M989 2236l12 0c41,160 186,278 358,278 172,0 317,-118 358,-278l561 0c41,160 186,278 358,278 173,0 317,-118 358,-278l308 0c50,0 92,-41 92,-92l0 -162c0,-335 -250,-612 -573,-655 -44,-416 -396,-741 -823,-741 -427,0 -780,325 -823,741 -323,43 -573,320 -573,655l0 162c0,51 41,92 92,92l111 0 184 0zm556 -92c0,102 -84,186 -186,186 -102,0 -186,-84 -186,-186 0,-102 84,-186 186,-186 102,0 186,84 186,186zm1277 0c0,102 -83,186 -186,186 -102,0 -185,-84 -185,-186 0,-102 83,-186 185,-186 103,0 186,84 186,186zm-2036 -162c0,-263 214,-477 476,-477 51,0 92,-41 92,-92 0,-355 289,-643 644,-643 355,0 643,288 643,643 0,51 41,92 92,92 263,0 477,214 477,477l0 70 -216 0c-41,-159 -185,-278 -358,-278 -172,0 -317,119 -358,278l-561 0c-41,-159 -186,-278 -358,-278 -172,0 -317,119 -358,278l-215 0 0 -70z"/>
    </g>
    <path class="fil0" d="M1998 3400c-434,0 -834,-219 -1068,-586 -28,-42 -15,-98 27,-125 42,-27 98,-15 125,28 202,314 544,502 916,502 372,0 714,-188 915,-503 27,-42 83,-54 126,-27 42,27 54,83 27,125 -235,367 -634,586 -1068,586zm0 0z"/>
   </g>
   <polygon class="fil2" points="4676,3345 5281,3345 5281,2281 6592,2281 6592,1732 5281,1732 5281,1147 6769,1147 6769,597 4676,597 "/>
   <path id="1" class="fil2" d="M8504 3389c738,0 1206,-409 1206,-1241l0 -1551 -605 0 0 1575c0,435 -224,659 -593,659 -369,0 -593,-231 -593,-679l0 -1555 -604 0 0 1571c0,808 451,1221 1189,1221z"/>
   <polygon id="2" class="fil2" points="10432,3345 11029,3345 11029,1598 12360,3345 12874,3345 12874,597 12277,597 12277,2289 10990,597 10432,597 "/>
   <path id="3" class="fil2" d="M14790 3345l915 0c864,0 1461,-600 1461,-1374 0,-781 -597,-1374 -1461,-1374l-915 0 0 2748zm204 -188l0 -2371 711 0c766,0 1249,534 1249,1185 0,664 -483,1186 -1249,1186l-711 0z"/>
   <path id="4" class="fil2" d="M17967 3345l204 0 0 -1138 899 0 876 1138 259 0 -907 -1173c463,-63 805,-326 805,-786 0,-204 -79,-388 -209,-518 -164,-165 -435,-271 -773,-271l-1154 0 0 2748zm204 -1323l0 -1236 938 0c499,0 789,231 789,600 0,405 -341,636 -801,636l-926 0z"/>
   <polygon id="5" class="fil2" points="20939,3345 21143,3345 21143,597 20939,597 "/>
   <polygon id="6" class="fil2" points="23067,3365 23248,3365 24457,597 24241,597 23161,3126 22085,597 21858,597 "/>
   <polygon id="7" class="fil2" points="25144,3345 27119,3345 27119,3157 25348,3157 25348,2054 26923,2054 26923,1865 25348,1865 25348,786 27099,786 27099,597 25144,597 "/>
   <polygon class="fil2" points="255,4455 389,4455 389,5361 984,4455 1130,4455 1130,5599 996,5599 996,4695 403,5599 255,5599 "/>
   <polygon id="1" class="fil2" points="1356,4769 1493,4769 1493,5115 1874,5115 1874,4769 2011,4769 2011,5599 1874,5599 1874,5231 1493,5231 1493,5599 1356,5599 "/>
   <path id="2" class="fil2" d="M2325 4769l564 0 0 715 88 0 0 350 -113 0 0 -235 -637 0 0 235 -113 0 0 -350 72 0c97,-135 143,-373 139,-715zm114 117c-11,269 -51,468 -122,598l435 0 0 -598 -313 0z"/>
   <polygon id="3" class="fil2" points="3127,4769 3264,4769 3264,5402 3646,4769 3793,4769 3793,5599 3656,5599 3656,4970 3275,5599 3127,5599 "/>
   <path id="4" class="fil2" d="M3999 4769l315 0c78,0 136,7 174,20 37,14 70,38 97,73 27,36 41,78 41,128 0,40 -9,74 -24,104 -16,29 -40,54 -73,74 38,13 70,37 95,72 25,36 37,78 37,127 -5,79 -32,137 -82,175 -49,38 -122,57 -216,57l-364 0 0 -830zm137 350l145 0c58,0 98,-3 120,-9 22,-6 41,-19 58,-38 18,-19 26,-42 26,-68 0,-44 -15,-75 -45,-92 -30,-17 -81,-26 -154,-26l-150 0 0 233zm0 365l180 0c77,0 131,-10 160,-28 28,-19 44,-50 45,-96 0,-26 -8,-51 -25,-74 -17,-22 -39,-37 -65,-43 -27,-6 -70,-9 -130,-9l-165 0 0 250z"/>
   <polygon id="5" class="fil2" points="4827,4769 4965,4769 4965,5402 5346,4769 5493,4769 5493,5599 5356,5599 5356,4970 4975,5599 4827,5599 "/>
   <path id="6" class="fil2" d="M5806 4769l565 0 0 715 87 0 0 350 -112 0 0 -235 -638 0 0 235 -112 0 0 -350 71 0c97,-135 143,-373 139,-715zm114 117c-10,269 -51,468 -121,598l435 0 0 -598 -314 0z"/>
   <path id="7" class="fil2" d="M6603 5917l-16 -129c30,8 56,12 78,12 31,0 56,-5 74,-16 18,-10 33,-25 45,-43 9,-15 23,-49 42,-105 2,-8 6,-19 12,-35l-307 -832 146 0 169 479c22,61 42,125 59,192 16,-63 35,-126 57,-187l172 -484 137 0 -306 844c-33,91 -58,153 -77,188 -24,46 -52,79 -84,101 -32,22 -69,32 -113,32 -26,0 -56,-5 -88,-17z"/>
   <path id="8" class="fil2" d="M7900 5495c-51,44 -100,75 -147,94 -47,18 -98,27 -152,27 -89,0 -157,-22 -205,-66 -48,-44 -72,-101 -72,-170 0,-41 10,-78 27,-111 19,-34 42,-60 71,-81 30,-20 62,-35 99,-46 27,-7 68,-14 122,-21 111,-13 193,-29 245,-48 1,-19 1,-31 1,-37 0,-56 -13,-97 -39,-120 -35,-32 -87,-47 -156,-47 -65,0 -113,11 -144,34 -31,24 -53,65 -68,124l-134 -19c12,-59 32,-107 60,-143 28,-36 69,-64 122,-84 52,-19 114,-29 184,-29 69,0 125,8 169,25 43,17 75,37 95,63 20,25 35,57 43,96 4,24 7,67 7,129l0 186c0,130 3,213 8,248 6,34 17,68 34,100l-144 0c-13,-30 -22,-64 -26,-104zm-11 -312c-50,21 -125,39 -225,53 -56,8 -96,18 -120,28 -23,10 -41,25 -54,45 -13,20 -19,42 -19,67 0,37 14,68 41,93 28,24 69,37 122,37 53,0 100,-12 141,-35 41,-24 72,-56 91,-97 15,-31 22,-78 22,-140l1 -51z"/>
   <path id="9" class="fil2" d="M8306 4769l638 0 0 829 -138 0 0 -712 -363 0 0 413c0,96 -3,159 -9,190 -6,31 -23,57 -50,80 -28,23 -67,35 -119,35 -32,0 -69,-3 -111,-7l0 -117 60 0c29,0 49,-2 61,-9 12,-5 21,-15 25,-28 4,-13 6,-55 6,-127l0 -547z"/>
   <path id="10" class="fil2" d="M9146 4769l137 0 0 325 173 0c114,0 201,22 262,67 61,45 92,107 92,186 0,70 -25,129 -77,178 -51,49 -132,74 -245,74l-342 0 0 -830zm137 715l144 0c87,0 150,-11 187,-33 37,-22 56,-56 56,-102 0,-36 -14,-68 -42,-96 -27,-28 -88,-43 -182,-43l-163 0 0 274z"/>
   <polygon id="11" class="fil2" points="9961,4769 10098,4769 10098,5115 10479,5115 10479,4769 10616,4769 10616,5599 10479,5599 10479,5231 10098,5231 10098,5599 9961,5599 "/>
   <path id="12" class="fil2" d="M10771 5184c0,-153 41,-266 125,-340 69,-62 154,-92 254,-92 111,0 202,37 273,112 70,74 106,177 106,308 0,107 -16,190 -47,251 -31,61 -77,109 -136,143 -60,34 -125,50 -196,50 -113,0 -204,-37 -274,-111 -70,-74 -105,-181 -105,-321zm140 0c0,106 23,186 68,238 46,53 103,79 171,79 69,0 125,-26 171,-79 45,-53 68,-134 68,-242 0,-102 -23,-180 -69,-232 -45,-53 -102,-79 -170,-79 -68,0 -125,26 -171,78 -45,53 -68,132 -68,237z"/>
   <path id="13" class="fil2" d="M12242 5330l142 19c-22,85 -63,151 -124,197 -60,47 -137,70 -231,70 -118,0 -212,-37 -281,-112 -69,-74 -103,-178 -103,-313 0,-139 35,-247 104,-324 70,-77 161,-115 273,-115 107,0 196,37 264,113 68,75 103,181 103,318 0,8 -1,20 -1,37l-603 0c5,91 30,161 75,209 45,48 102,72 169,72 50,0 93,-13 129,-40 35,-28 63,-71 84,-131zm-449 -225l450 0c-6,-70 -23,-122 -51,-157 -44,-54 -100,-81 -170,-81 -63,0 -115,21 -158,65 -43,43 -67,101 -71,173z"/>
   <path id="14" class="fil2" d="M12939 5184c0,-153 42,-266 125,-340 70,-62 155,-92 255,-92 111,0 202,37 272,112 71,74 106,177 106,308 0,107 -15,190 -47,251 -31,61 -76,109 -136,143 -60,34 -125,50 -195,50 -114,0 -205,-37 -275,-111 -70,-74 -105,-181 -105,-321zm141 0c0,106 22,186 67,238 46,53 103,79 172,79 68,0 124,-26 170,-79 45,-53 68,-134 68,-242 0,-102 -23,-180 -68,-232 -46,-53 -103,-79 -170,-79 -69,0 -126,26 -172,78 -45,53 -67,132 -67,237z"/>
   <path id="15" class="fil2" d="M14448 4428l121 1c-5,56 -17,95 -36,116 -18,22 -42,36 -71,43 -29,6 -86,9 -171,9 -113,0 -190,11 -231,33 -41,23 -71,59 -89,107 -17,50 -27,113 -29,190 34,-52 74,-92 121,-118 46,-27 98,-40 156,-40 106,0 193,38 263,112 70,75 104,176 104,303 0,97 -17,176 -52,238 -35,62 -77,110 -125,144 -48,34 -113,50 -196,50 -96,0 -171,-22 -224,-67 -53,-45 -94,-103 -123,-173 -28,-70 -42,-192 -42,-366 0,-218 36,-366 108,-442 72,-76 183,-113 333,-113 93,0 146,-2 158,-5 13,-3 21,-11 25,-22zm-5 752c0,-86 -20,-156 -60,-211 -40,-55 -96,-83 -168,-83 -76,0 -134,29 -175,87 -41,59 -62,136 -62,233 0,96 23,170 68,220 46,51 102,77 168,77 68,0 123,-30 166,-89 42,-58 63,-136 63,-234z"/>
   <path id="16" class="fil2" d="M14711 5917l-16 -129c30,8 56,12 79,12 30,0 55,-5 73,-16 18,-10 34,-25 45,-43 9,-15 23,-49 42,-105 3,-8 7,-19 12,-35l-307 -832 147 0 169 479c22,61 41,125 59,192 15,-63 34,-126 56,-187l173 -484 137 0 -306 844c-33,91 -59,153 -77,188 -25,46 -53,79 -84,101 -32,22 -70,32 -113,32 -27,0 -57,-5 -89,-17z"/>
   <path id="17" class="fil2" d="M15445 4769l138 0 0 157c0,68 4,117 12,147 7,30 26,57 57,80 29,22 67,33 113,33 52,0 119,-14 201,-42l0 -375 138 0 0 830 -138 0 0 -335c-84,27 -163,41 -236,41 -62,0 -116,-16 -163,-48 -47,-32 -79,-71 -96,-118 -17,-46 -26,-97 -26,-152l0 -218z"/>
   <path id="18" class="fil2" d="M16862 5330l141 19c-22,85 -63,151 -123,197 -60,47 -138,70 -231,70 -118,0 -212,-37 -281,-112 -69,-74 -104,-178 -104,-313 0,-139 35,-247 105,-324 70,-77 161,-115 272,-115 108,0 196,37 265,113 68,75 102,181 102,318 0,8 0,20 -1,37l-602 0c5,91 30,161 75,209 45,48 101,72 169,72 50,0 93,-13 128,-40 36,-28 64,-71 85,-131zm-450 -225l451 0c-6,-70 -23,-122 -52,-157 -43,-54 -100,-81 -169,-81 -63,0 -116,21 -159,65 -42,43 -66,101 -71,173z"/>
   <polygon id="19" class="fil2" points="17177,4769 17314,4769 17314,5115 17695,5115 17695,4769 17832,4769 17832,5599 17695,5599 17695,5231 17314,5231 17314,5599 17177,5599 "/>
   <polygon id="20" class="fil2" points="18038,4769 18175,4769 18175,5402 18557,4769 18704,4769 18704,5599 18567,5599 18567,4970 18186,5599 18038,5599 "/>
   <path id="21" class="fil2" d="M19462 5330l142 19c-23,85 -64,151 -124,197 -60,47 -137,70 -231,70 -118,0 -212,-37 -281,-112 -69,-74 -104,-178 -104,-313 0,-139 35,-247 105,-324 70,-77 161,-115 272,-115 108,0 196,37 265,113 68,75 102,181 102,318 0,8 0,20 -1,37l-602 0c5,91 30,161 75,209 45,48 101,72 169,72 50,0 93,-13 128,-40 36,-28 64,-71 85,-131zm-450 -225l451 0c-6,-70 -23,-122 -52,-157 -43,-54 -100,-81 -169,-81 -63,0 -116,21 -159,65 -42,43 -66,101 -71,173z"/>
   <path id="22" class="fil2" d="M20210 4769l316 0c78,0 135,7 173,20 38,14 70,38 97,73 28,36 41,78 41,128 0,40 -8,74 -24,104 -16,29 -40,54 -72,74 38,13 69,37 95,72 25,36 37,78 37,127 -5,79 -32,137 -82,175 -50,38 -122,57 -217,57l-364 0 0 -830zm137 350l146 0c58,0 98,-3 120,-9 21,-6 41,-19 58,-38 17,-19 26,-42 26,-68 0,-44 -15,-75 -45,-92 -30,-17 -82,-26 -155,-26l-150 0 0 233zm0 365l181 0c77,0 130,-10 159,-28 29,-19 44,-50 46,-96 0,-26 -9,-51 -25,-74 -17,-22 -39,-37 -66,-43 -26,-6 -70,-9 -129,-9l-166 0 0 250z"/>
   <path id="23" class="fil2" d="M20970 5184c0,-153 42,-266 125,-340 70,-62 154,-92 255,-92 111,0 202,37 272,112 71,74 106,177 106,308 0,107 -16,190 -47,251 -31,61 -76,109 -136,143 -60,34 -125,50 -195,50 -114,0 -205,-37 -275,-111 -70,-74 -105,-181 -105,-321zm140 0c0,106 23,186 68,238 46,53 103,79 172,79 68,0 124,-26 170,-79 45,-53 68,-134 68,-242 0,-102 -23,-180 -69,-232 -45,-53 -102,-79 -169,-79 -69,0 -126,26 -172,78 -45,53 -68,132 -68,237z"/>
   <path id="24" class="fil2" d="M22361 4769l0 358c45,0 76,-8 94,-25 18,-17 43,-67 77,-150 31,-79 59,-129 85,-151 25,-21 64,-32 118,-32l50 0 0 116 -37 -1c-36,0 -59,6 -70,17 -10,11 -27,45 -49,102 -20,55 -39,92 -56,113 -17,21 -44,40 -80,57 59,16 117,72 173,169l151 257 -151 0 -147 -257c-30,-52 -56,-86 -78,-103 -22,-16 -49,-24 -80,-24l0 384 -140 0 0 -384c-31,0 -57,8 -79,24 -22,16 -48,50 -78,103l-148 257 -151 0 150 -257c58,-97 116,-153 175,-169 -41,-19 -69,-40 -85,-63 -17,-23 -41,-77 -73,-162 -12,-29 -23,-47 -36,-53 -13,-7 -33,-10 -59,-10 -6,0 -20,1 -40,1l0 -117 19 0c53,0 90,4 112,10 21,7 40,21 57,42 17,21 39,64 66,131 33,82 59,131 77,149 17,18 49,26 93,26l0 -358 140 0z"/>
   <path id="25" class="fil2" d="M23023 4769l564 0 0 715 88 0 0 350 -113 0 0 -235 -638 0 0 235 -112 0 0 -350 72 0c96,-135 143,-373 139,-715zm113 117c-10,269 -50,468 -121,598l435 0 0 -598 -314 0z"/>
   <path id="26" class="fil2" d="M24377 5330l142 19c-22,85 -63,151 -124,197 -60,47 -137,70 -231,70 -118,0 -211,-37 -281,-112 -69,-74 -103,-178 -103,-313 0,-139 35,-247 105,-324 70,-77 160,-115 272,-115 107,0 196,37 264,113 68,75 103,181 103,318 0,8 -1,20 -1,37l-603 0c5,91 30,161 76,209 45,48 101,72 168,72 50,0 93,-13 129,-40 35,-28 63,-71 84,-131zm-449 -225l451 0c-6,-70 -24,-122 -52,-157 -43,-54 -100,-81 -169,-81 -63,0 -116,21 -159,65 -43,43 -66,101 -71,173z"/>
   <polygon id="27" class="fil2" points="24693,4769 24830,4769 24830,5115 25210,5115 25210,4769 25348,4769 25348,5599 25210,5599 25210,5231 24830,5231 24830,5599 24693,5599 "/>
   <polygon id="28" class="fil2" points="25554,4769 25691,4769 25691,5402 26072,4769 26220,4769 26220,5599 26082,5599 26082,4970 25702,5599 25554,5599 "/>
   <path id="29" class="fil2" d="M26426 4769l138 0 0 347 167 0c12,-118 48,-208 108,-271 60,-62 138,-93 234,-93 82,0 146,17 193,51 48,33 87,80 117,139 31,59 46,139 46,239 0,143 -31,251 -95,325 -63,74 -149,110 -258,110 -101,0 -182,-34 -243,-102 -60,-69 -95,-163 -102,-283l-167 0 0 368 -138 0 0 -830zm655 103c-67,0 -119,26 -157,79 -37,52 -56,126 -56,221 0,114 19,197 56,250 38,53 88,79 151,79 63,0 114,-24 154,-73 40,-49 60,-128 60,-237 0,-107 -17,-186 -52,-239 -34,-54 -86,-80 -156,-80z"/>
   <rect class="fil3" x="13696" y="136" width="459" height="3714"/>
  </g>
 </g>
</svg>
